<svg version="1.1" id="Layer_1" xmlns="http://www.w3.org/2000/svg" xmlns:xlink="http://www.w3.org/1999/xlink" x="0px" y="0px"
	 width="100%" viewBox="0 0 220 159" enable-background="new 0 0 220 159" xml:space="preserve">
<path fill="#010100" opacity="1.000000" stroke="none" 
	d="
M131.000000,160.000000 
	C87.361824,160.000000 44.223648,160.000000 1.085470,160.000000 
	C1.056980,159.861938 1.003528,159.723862 1.003519,159.585800 
	C0.999934,106.787338 1.000000,53.988873 1.000000,1.095205 
	C74.221352,1.095205 147.442871,1.095205 220.832184,1.095205 
	C220.832184,53.999577 220.832184,106.999741 220.832184,160.000000 
	C191.127258,160.000000 161.313629,160.000000 131.000000,160.000000 
M132.046173,72.034981 
	C132.046173,72.034981 132.063004,72.102333 132.599182,71.787964 
	C132.826828,71.233452 133.054459,70.678932 133.285568,70.200768 
	C133.285568,70.200768 133.354172,70.234436 133.995575,70.014618 
	C137.377701,64.135582 140.372070,57.984955 144.247757,52.451626 
	C148.369064,46.567635 149.673294,41.091171 144.723557,34.499836 
	C143.905014,33.271217 143.086472,32.042599 142.068939,30.181664 
	C141.583755,29.439171 141.098572,28.696678 140.427597,27.417053 
	C139.915009,26.617428 139.402405,25.817802 138.730301,24.398956 
	C137.809204,23.030041 136.888107,21.661123 135.485565,19.848970 
	C135.061798,18.864828 134.638046,17.880688 134.015289,16.291103 
	C133.335083,15.494428 132.654877,14.697752 131.867157,13.245573 
	C130.181213,11.869234 128.495285,10.492895 126.122192,8.925012 
	C124.071648,8.941679 122.021103,8.958346 119.323586,8.798840 
	C118.883987,8.864899 118.444397,8.930958 117.182144,8.825559 
	C115.790039,8.884665 114.397942,8.943770 112.179535,8.847319 
	C110.787750,8.892385 109.395966,8.937453 107.133331,8.829648 
	C105.087135,8.896100 103.040947,8.962552 100.288612,8.914381 
	C99.188225,8.647652 98.087830,8.380922 96.251915,8.007886 
	C92.348778,7.661087 88.502579,7.992419 86.277596,11.658979 
	C82.651306,17.634718 79.374443,23.822502 75.461143,30.164024 
	C74.030075,32.456078 72.599388,34.748375 71.167831,37.040127 
	C68.551277,41.228920 68.297821,45.254311 72.109863,49.572170 
	C72.431488,50.022358 72.753105,50.472546 73.221451,51.449032 
	C74.118690,52.643227 75.015930,53.837421 76.077560,55.735092 
	C79.040878,60.538261 82.004204,65.341423 85.019897,70.563896 
	C85.019897,70.563896 85.154266,70.964523 85.081573,71.608604 
	C86.039940,72.933029 86.998306,74.257446 88.407661,76.202103 
	C89.604904,76.414688 90.802139,76.627274 92.663933,76.983749 
	C94.094498,76.926918 95.525070,76.870087 97.628822,76.958076 
	C98.083984,76.915993 98.539154,76.873901 99.665062,76.960251 
	C100.117828,76.924347 100.570595,76.888443 101.723244,77.254196 
	C103.548477,77.418716 105.373718,77.583244 107.925102,77.845467 
	C108.901001,77.775978 109.876900,77.706490 111.662468,77.757988 
	C112.749214,77.708702 113.835968,77.659416 115.420349,77.692284 
	C115.585373,77.661713 115.750397,77.631134 116.594643,77.716888 
	C117.050461,77.681168 117.506287,77.645439 118.814476,77.775337 
	C120.546776,77.735542 122.279083,77.695755 124.785339,77.781174 
	C128.408813,78.052742 131.003876,76.813713 132.004639,72.514862 
	C132.004639,72.514862 132.115387,72.029701 132.046173,72.034981 
M144.083344,97.907677 
	C144.083344,97.907677 144.197998,97.918236 144.269913,98.523399 
	C144.864624,99.303719 145.459335,100.084045 146.212463,101.430237 
	C146.302689,101.604095 146.392899,101.777954 146.598846,102.583344 
	C147.757004,104.337509 148.915161,106.091682 150.058777,107.927559 
	C150.058777,107.927559 150.140961,107.939133 150.247879,108.587898 
	C150.901962,109.720268 151.556061,110.852631 152.403351,112.483299 
	C152.820648,112.803810 153.237930,113.124321 153.633636,113.477432 
	C153.633636,113.477432 153.625824,113.516281 154.037430,114.117317 
	C160.368439,114.352943 166.699463,114.588577 173.911102,115.012810 
	C176.618744,114.981339 179.326385,114.949860 182.588303,115.331772 
	C184.561218,115.196877 186.543564,114.869728 188.505127,114.966042 
	C192.956802,115.184586 195.761002,113.257561 197.000000,108.999695 
	C197.000000,108.999695 197.009995,109.014252 197.425613,108.752090 
	C197.685898,108.536827 197.867432,108.268318 198.497314,107.520027 
	C201.417068,101.438652 204.336807,95.357277 207.155106,89.273544 
	C207.155106,89.273544 207.246902,89.253647 207.857849,89.214966 
	C208.230484,89.044357 208.603134,88.873749 209.527588,88.340492 
	C211.351547,84.770767 214.544769,81.484283 211.945877,76.982666 
	C208.669327,71.307281 205.372833,65.643402 201.933289,59.453743 
	C201.869049,59.284729 201.804794,59.115711 201.639603,58.536022 
	C201.484299,58.287804 201.271423,58.107574 200.882385,57.507572 
	C200.825272,57.350300 200.768143,57.193027 200.563416,56.439568 
	C199.724518,55.285690 198.885605,54.131809 197.913589,52.303497 
	C196.597382,50.560944 195.281158,48.818390 193.473831,46.497402 
	C191.962723,46.399250 190.451599,46.301094 188.195023,46.028343 
	C183.178833,45.884918 178.162659,45.741497 172.414673,45.440617 
	C171.920654,45.485542 171.426620,45.530468 170.239716,45.365673 
	C169.530823,45.446682 168.821945,45.527687 167.382538,45.493820 
	C166.901489,45.580780 166.420441,45.667744 165.260544,45.516087 
	C164.545731,45.528629 163.830933,45.541172 162.304428,45.317013 
	C160.213638,45.527237 158.122864,45.737461 155.382324,46.190834 
	C151.339523,52.467503 147.296738,58.744171 143.067749,65.059441 
	C143.067749,65.059441 143.052719,65.248558 142.671829,65.284897 
	C142.383804,65.431038 142.314774,65.647163 142.219162,66.545761 
	C142.164764,66.758881 142.110352,66.972008 141.505234,67.433037 
	C141.088760,68.305176 140.672272,69.177307 139.791397,70.436798 
	C139.400375,71.141449 139.009354,71.846100 138.077774,72.872726 
	C137.783478,73.616447 137.489182,74.360168 137.112335,75.102531 
	C137.112335,75.102531 137.113724,75.185074 136.483139,75.470505 
	C132.888397,81.716499 135.570099,86.536942 140.175858,91.607971 
	C140.910904,92.726883 141.645950,93.845787 142.335205,95.565056 
	C142.922516,96.307823 143.509827,97.050598 144.083344,97.907677 
M131.989319,147.499359 
	C132.328842,146.673325 132.668381,145.847275 133.572525,144.636124 
	C134.426605,142.779800 135.280685,140.923477 136.634872,138.621887 
	C138.688370,135.050781 140.741852,131.479691 142.989563,127.248634 
	C144.119461,125.556618 145.249359,123.864601 146.798599,121.615555 
	C146.877518,119.573631 147.569656,117.298943 146.902145,115.540352 
	C145.677124,112.313004 143.821045,109.278870 141.922394,106.363243 
	C138.076523,100.457397 134.026505,94.684486 129.700729,88.270065 
	C125.750755,82.981651 120.208344,84.533562 114.161995,84.863068 
	C111.781250,84.626602 109.400513,84.390129 106.343132,83.948593 
	C105.876228,83.990181 105.409317,84.031761 104.113396,83.977303 
	C103.031601,84.163910 101.949799,84.350510 100.371574,84.168480 
	C95.062233,82.648315 90.646355,83.921196 87.707291,88.707436 
	C82.789627,96.715805 78.056152,104.837288 72.760643,113.317650 
	C70.836464,116.609421 70.040054,119.879066 73.021866,123.740707 
	C73.638412,124.296822 74.254959,124.852943 74.797958,125.998001 
	C75.119514,126.699707 75.441071,127.401413 75.942863,128.742508 
	C76.416809,129.485535 76.890762,130.228577 77.567589,131.600327 
	C79.322174,134.413010 81.076767,137.225693 82.943161,140.757828 
	C85.310600,144.166489 87.678032,147.575165 90.590851,151.507889 
	C91.827301,151.910995 93.059608,152.648392 94.300865,152.663788 
	C103.376312,152.776352 112.453827,152.777039 121.529808,152.704269 
	C122.400040,152.697296 123.264328,151.948135 124.927650,151.494125 
	C126.947594,150.623306 128.967529,149.752487 131.305420,148.703171 
	C131.509399,148.550369 131.632935,148.348373 131.989319,147.499359 
M68.924911,107.386208 
	C68.935875,107.125038 68.946846,106.863869 69.466133,106.263733 
	C73.591988,99.543365 77.986679,92.966438 81.691940,86.021667 
	C82.921120,83.717804 83.543869,79.856117 82.442169,77.757423 
	C77.770035,68.857224 72.504242,60.250980 67.103264,51.761330 
	C65.378113,49.049618 63.165577,45.974854 58.235268,46.598892 
	C49.954945,46.490444 41.674877,46.346634 33.394203,46.286896 
	C28.478518,46.251431 24.691326,48.162785 22.299965,52.698650 
	C19.073988,58.817596 15.663704,64.839371 12.052824,71.429840 
	C11.171068,72.948524 10.289312,74.467216 9.123082,76.512299 
	C9.086153,76.708298 9.049223,76.904297 8.490007,77.373749 
	C8.319893,77.933159 8.149779,78.492569 7.393631,79.479271 
	C7.595985,81.279610 7.798338,83.079941 7.978197,84.998360 
	C7.978197,84.998360 8.096167,85.021423 8.156460,85.705368 
	C9.437203,87.803619 10.717948,89.901871 12.204347,92.584839 
	C12.794010,93.392212 13.383673,94.199593 13.989413,95.010292 
	C13.989413,95.010292 13.987288,95.026909 14.068371,95.744728 
	C17.011456,100.888260 19.820093,106.116570 22.978165,111.124527 
	C23.946932,112.660767 25.845907,114.601608 27.364620,114.642075 
	C38.882576,114.949013 50.411892,114.829620 62.789417,114.819550 
	C64.738823,112.584999 66.688232,110.350449 68.924911,107.386208 
z"/>
<path fill="#F04F20" opacity="1.000000" stroke="none" 
	d="
M9.407557,75.985901 
	C10.289312,74.467216 11.171068,72.948524 12.504904,71.166084 
	C13.967770,69.938644 14.978556,68.974968 16.310019,68.053558 
	C18.351187,67.689743 20.266600,67.637268 21.757807,66.815254 
	C27.643415,63.570854 33.511730,63.960907 39.790089,65.653824 
	C45.683865,67.243050 48.515137,71.877579 52.077972,76.341324 
	C53.226158,78.292542 53.950745,80.423042 55.435696,81.412964 
	C59.391186,84.049843 60.317505,87.678757 59.661751,91.919273 
	C56.883022,90.561630 54.442387,89.279747 51.823685,87.712059 
	C49.748005,85.874245 48.030697,83.995445 45.919479,82.830574 
	C39.178276,79.111069 32.343410,75.547432 25.407949,72.207611 
	C24.256348,71.653046 21.892937,71.970284 20.993143,72.830193 
	C17.607180,76.066040 13.622384,76.258270 9.407557,75.985901 
z"/>
<path fill="#11396E" opacity="1.000000" stroke="none" 
	d="
M202.084930,59.974564 
	C205.372833,65.643402 208.669327,71.307281 211.945877,76.982666 
	C214.544769,81.484283 211.351547,84.770767 209.154846,88.306458 
	C208.270370,88.599503 207.758636,88.926575 207.246902,89.253647 
	C207.246902,89.253647 207.155106,89.273544 206.824524,89.229279 
	C197.025421,92.624870 196.667969,92.262016 195.866714,81.623161 
	C195.720917,79.687317 194.000336,77.870071 193.089828,75.590103 
	C193.451141,71.434921 193.877029,67.691093 193.962982,63.939480 
	C194.037872,60.670689 194.933640,58.845901 198.651398,59.833267 
	C199.732193,60.120308 200.936981,59.940418 202.084930,59.974564 
z"/>
<path fill="#144373" opacity="1.000000" stroke="none" 
	d="
M193.006714,75.998077 
	C194.000336,77.870071 195.720917,79.687317 195.866714,81.623161 
	C196.667969,92.262016 197.025421,92.624870 206.875244,89.230453 
	C204.336807,95.357277 201.417068,101.438652 198.067047,107.707993 
	C197.427856,108.268715 197.218918,108.641487 197.009995,109.014252 
	C197.009995,109.014252 197.000000,108.999695 196.617920,108.995865 
	C193.682892,108.739723 191.129944,108.487419 187.738480,108.152252 
	C188.287323,104.807808 189.076370,101.822441 189.172623,98.814896 
	C189.244858,96.558289 188.426254,94.273155 188.076569,91.669258 
	C188.762405,89.890625 189.375946,88.443451 189.991104,86.557182 
	C190.328751,82.744682 190.664780,79.371269 191.335083,75.998528 
	C192.115128,75.998817 192.560928,75.998451 193.006714,75.998077 
z"/>
<path fill="#EF4721" opacity="1.000000" stroke="none" 
	d="
M9.265320,76.249100 
	C13.622384,76.258270 17.607180,76.066040 20.993143,72.830193 
	C21.892937,71.970284 24.256348,71.653046 25.407949,72.207611 
	C32.343410,75.547432 39.178276,79.111069 45.919479,82.830574 
	C48.030697,83.995445 49.748005,85.874245 51.805000,88.037827 
	C51.642258,89.432716 51.320133,90.216034 50.628990,90.973495 
	C48.009705,89.966019 45.843151,88.653206 43.494804,88.059593 
	C32.848164,85.368309 22.132803,82.947655 11.498539,80.210609 
	C10.471015,79.946144 9.831778,78.173065 9.012294,77.100296 
	C9.049223,76.904297 9.086153,76.708298 9.265320,76.249100 
z"/>
<path fill="#EA4022" opacity="1.000000" stroke="none" 
	d="
M8.751150,77.237022 
	C9.831778,78.173065 10.471015,79.946144 11.498539,80.210609 
	C22.132803,82.947655 32.848164,85.368309 43.494804,88.059593 
	C45.843151,88.653206 48.009705,89.966019 50.697792,91.317612 
	C52.089310,93.789345 53.043007,95.891113 53.621986,97.994690 
	C52.497669,97.997261 51.748074,97.998016 50.700378,97.786713 
	C36.300247,93.390244 22.198208,89.205833 8.096167,85.021423 
	C8.096167,85.021423 7.978197,84.998360 8.000403,84.524467 
	C8.008296,82.384377 7.993981,80.718178 7.979666,79.051979 
	C8.149779,78.492569 8.319893,77.933159 8.751150,77.237022 
z"/>
<path fill="#E13A22" opacity="1.000000" stroke="none" 
	d="
M8.126314,85.363396 
	C22.198208,89.205833 36.300247,93.390244 50.700783,98.215042 
	C50.998318,100.568939 50.997356,102.282440 50.636288,103.910263 
	C46.464909,102.879135 42.692078,101.709579 38.832203,101.047493 
	C34.449539,100.295715 29.664305,100.816109 25.670177,99.231010 
	C22.738472,98.067551 20.599230,97.676750 17.749542,98.806488 
	C16.342752,97.391441 15.165020,96.209175 13.987288,95.026909 
	C13.987288,95.026909 13.989413,95.010292 13.970907,94.674797 
	C13.301164,93.559578 12.649927,92.779846 11.998692,92.000122 
	C10.717948,89.901871 9.437203,87.803619 8.126314,85.363396 
z"/>
<path fill="#1B6A34" opacity="1.000000" stroke="none" 
	d="
M82.831352,140.038376 
	C81.076767,137.225693 79.322174,134.413010 77.781113,131.331650 
	C79.364487,131.887665 80.734352,132.712357 81.283096,133.042709 
	C86.584183,129.906830 91.033043,125.891556 96.168869,124.592804 
	C102.365479,123.025810 106.328400,119.544647 110.279297,114.795799 
	C111.706848,114.391136 112.850334,114.190994 114.411301,113.993484 
	C116.219704,113.997185 117.610626,113.998253 119.001114,114.374771 
	C119.001053,115.501152 119.001442,116.252106 118.814003,117.277725 
	C116.083183,120.034523 113.540184,122.516647 110.649887,125.079620 
	C106.141907,127.421783 102.200920,130.402969 97.763420,131.757263 
	C92.536392,133.352524 87.280754,134.175858 84.632370,140.026031 
	C83.792236,140.031067 83.311790,140.034714 82.831352,140.038376 
z"/>
<path fill="#DD7D2D" opacity="1.000000" stroke="none" 
	d="
M58.935940,47.004417 
	C63.165577,45.974854 65.378113,49.049618 67.103264,51.761330 
	C72.504242,60.250980 77.770035,68.857224 82.442169,77.757423 
	C83.543869,79.856117 82.921120,83.717804 81.691940,86.021667 
	C77.986679,92.966438 73.591988,99.543365 69.329086,106.124222 
	C70.478111,103.010056 71.764183,100.035393 73.278702,96.810303 
	C78.561996,91.683334 75.173714,85.533791 75.993759,79.629410 
	C74.113228,73.462143 73.116371,67.157822 70.066025,62.089352 
	C67.945915,58.566578 68.294403,52.362652 61.911179,51.561241 
	C58.491234,50.179424 55.229549,49.121277 52.289963,47.848259 
	C54.720016,47.423733 56.827980,47.214077 58.935940,47.004417 
z"/>
<path fill="#1A7AA6" opacity="1.000000" stroke="none" 
	d="
M143.253952,65.020844 
	C147.296738,58.744171 151.339523,52.467503 155.665985,46.201546 
	C155.949661,46.212257 155.992035,46.485073 155.994492,46.874531 
	C155.665588,52.841335 155.334229,58.418682 154.854935,64.335915 
	C154.029465,66.704117 153.406082,68.752510 152.662689,70.756378 
	C151.302689,74.422340 153.050995,74.803734 155.986084,74.426178 
	C155.981201,80.561440 155.985321,86.271446 155.683014,92.047485 
	C154.584610,92.743401 153.792603,93.373291 152.707184,93.920303 
	C151.609818,93.225838 150.805908,92.614243 149.999054,91.582146 
	C149.333527,85.781845 148.670914,80.402046 148.008423,74.569183 
	C148.515228,69.637177 149.021942,65.158241 149.636459,59.726429 
	C147.368820,61.607491 145.311386,63.314167 143.253952,65.020844 
z"/>
<path fill="#124582" opacity="1.000000" stroke="none" 
	d="
M191.000809,75.997864 
	C190.664780,79.371269 190.328751,82.744682 189.655396,86.397888 
	C188.542892,83.413612 187.558929,80.181465 187.053284,76.876144 
	C186.581024,73.789154 185.178650,72.090416 181.767456,71.743240 
	C180.688873,69.325783 179.853073,67.163475 178.938995,64.617279 
	C177.617416,58.407085 174.501633,52.554512 180.241516,46.192390 
	C177.695068,46.192390 176.281982,46.192390 174.641373,46.152439 
	C173.991379,45.941017 173.568924,45.769547 173.146469,45.598076 
	C178.162659,45.741497 183.178833,45.884918 188.414673,46.404488 
	C187.857925,47.781898 187.027954,48.747028 186.320816,49.795044 
	C185.667847,50.762749 185.146591,51.819328 184.567322,52.836765 
	C185.708527,53.225143 186.849747,53.613522 187.992249,54.418114 
	C187.991287,56.221706 187.989044,57.609081 187.685608,58.886086 
	C186.347122,57.956367 185.309845,57.137028 184.272568,56.317688 
	C183.950150,56.587154 183.627747,56.856617 183.305328,57.126080 
	C184.753937,59.482296 183.403214,63.418545 188.025787,64.397606 
	C189.037491,68.529289 190.019150,72.263573 191.000809,75.997864 
z"/>
<path fill="#C83527" opacity="1.000000" stroke="none" 
	d="
M14.027828,95.385818 
	C15.165020,96.209175 16.342752,97.391441 17.902813,99.108444 
	C19.119204,100.881203 20.126778,102.037666 20.754465,103.372719 
	C22.563080,107.219551 25.054523,108.536957 29.652502,108.323685 
	C35.430439,108.055695 41.318661,109.373985 47.100140,110.355988 
	C49.476212,110.759575 51.698032,112.071312 54.417667,112.976143 
	C56.552540,112.988922 58.259762,112.995506 60.038399,113.251068 
	C60.719101,113.947739 61.328384,114.395447 61.937668,114.843147 
	C50.411892,114.829620 38.882576,114.949013 27.364620,114.642075 
	C25.845907,114.601608 23.946932,112.660767 22.978165,111.124527 
	C19.820093,106.116570 17.011456,100.888260 14.027828,95.385818 
z"/>
<path fill="#228035" opacity="1.000000" stroke="none" 
	d="
M75.762627,128.103119 
	C75.441071,127.401413 75.119514,126.699707 74.880219,125.300873 
	C75.673088,123.185257 76.012611,121.247139 77.154076,120.431961 
	C85.008026,114.823120 93.029610,109.449020 101.327637,104.147270 
	C103.770256,104.864693 105.882507,105.434250 107.808212,106.279930 
	C102.415596,111.037834 97.209526,115.519608 91.626320,120.026558 
	C88.290398,121.575935 84.542908,122.446457 82.589211,124.803688 
	C80.534996,127.282204 78.798866,128.526047 75.762627,128.103119 
z"/>
<path fill="#185E89" opacity="1.000000" stroke="none" 
	d="
M173.030457,114.824203 
	C166.699463,114.588577 160.368439,114.352943 154.247162,113.724312 
	C156.633362,113.546143 158.809830,113.760979 161.368347,113.977623 
	C162.978790,112.918533 165.259369,111.849442 165.251175,110.798180 
	C165.217896,106.530228 164.481888,102.267746 164.242371,97.753265 
	C165.654358,95.669357 166.829010,93.835442 168.379333,91.994797 
	C171.498657,90.324776 174.242310,88.661484 176.988190,87.398438 
	C176.992172,88.866028 176.993958,89.933380 176.788269,91.284248 
	C175.698700,93.298744 174.869812,95.059364 173.924911,96.755363 
	C170.565521,102.785233 171.154297,108.328186 175.788391,111.538322 
	C174.857056,112.647942 173.943756,113.736069 173.030457,114.824203 
z"/>
<path fill="#439333" opacity="1.000000" stroke="none" 
	d="
M73.245148,112.911171 
	C78.056152,104.837288 82.789627,96.715805 87.707291,88.707436 
	C90.646355,83.921196 95.062233,82.648315 100.613045,84.670647 
	C94.568565,92.780045 88.282608,100.387276 81.656815,108.073357 
	C78.626373,109.738533 75.935768,111.324852 73.245148,112.911171 
z"/>
<path fill="#164C79" opacity="1.000000" stroke="none" 
	d="
M188.004272,92.000717 
	C188.426254,94.273155 189.244858,96.558289 189.172623,98.814896 
	C189.076370,101.822441 188.287323,104.807808 187.738480,108.152252 
	C191.129944,108.487419 193.682892,108.739723 196.625092,109.001038 
	C195.761002,113.257561 192.956802,115.184586 188.505127,114.966042 
	C186.543564,114.869728 184.561218,115.196877 182.416946,114.841187 
	C177.642975,107.822853 178.827621,100.943108 181.364548,93.931602 
	C183.815536,93.240517 185.909897,92.620613 188.004272,92.000717 
z"/>
<path fill="#E1B317" opacity="1.000000" stroke="none" 
	d="
M85.154266,70.964523 
	C85.154266,70.964523 85.019897,70.563896 85.021713,69.987900 
	C84.727264,67.646118 84.608360,65.825066 84.080582,64.131439 
	C83.630325,62.686604 82.710106,61.388222 82.372314,60.008652 
	C88.128693,58.814919 87.734505,53.441956 90.365433,49.978397 
	C96.918777,48.033997 97.909760,42.299644 100.044693,37.364433 
	C100.851410,35.499599 101.991508,33.778984 102.921242,32.325600 
	C102.906853,34.106449 102.950851,35.554329 102.994766,37.414520 
	C102.660217,39.883186 102.325760,41.939537 101.704697,44.089252 
	C100.948364,44.788410 100.478622,45.394203 100.002739,46.370567 
	C99.664734,48.164345 99.332870,49.587543 98.721802,51.199528 
	C95.513657,55.917843 90.498367,59.530029 92.008286,66.258926 
	C92.004295,66.504822 91.994659,66.996582 91.689941,67.107903 
	C90.254417,68.819572 89.123611,70.419922 87.718781,71.888130 
	C86.681259,71.492165 85.917763,71.228340 85.154266,70.964523 
z"/>
<path fill="#288734" opacity="1.000000" stroke="none" 
	d="
M100.997253,103.999390 
	C93.029610,109.449020 85.008026,114.823120 77.154076,120.431961 
	C76.012611,121.247139 75.673088,123.185257 74.916992,125.006409 
	C74.254959,124.852943 73.638412,124.296822 73.020615,123.039856 
	C73.620598,121.222267 74.120773,120.035027 74.841621,119.001740 
	C77.186020,115.641243 79.611153,112.337059 82.360481,108.925339 
	C84.759132,107.574501 87.943520,106.744339 88.623566,104.959824 
	C90.387276,100.331650 94.379944,99.609901 98.311058,98.054276 
	C99.417046,98.407600 100.209969,98.704514 101.002174,99.417892 
	C101.000053,101.222694 100.998657,102.611046 100.997253,103.999390 
z"/>
<path fill="#4F8E37" opacity="1.000000" stroke="none" 
	d="
M114.922714,77.610130 
	C113.835968,77.659416 112.749214,77.708702 111.124191,77.573135 
	C110.386398,77.244217 110.180702,77.109581 110.049507,76.615440 
	C111.751503,71.829117 113.372818,67.411743 115.270538,62.810818 
	C116.355965,61.080544 117.164978,59.533810 117.978775,57.614677 
	C117.991287,56.497459 117.999016,55.752644 118.312447,54.891926 
	C119.077042,53.852345 119.535942,52.928661 119.997391,51.625961 
	C119.983131,50.488453 119.966309,49.729961 119.958649,48.973766 
	C119.967812,48.976067 119.983009,48.986912 120.337791,48.899719 
	C125.523788,44.511986 124.307579,39.263065 123.015434,33.603287 
	C123.015663,32.141445 123.015640,31.078506 123.336670,29.884340 
	C125.076881,26.624048 126.381866,23.436182 127.953018,20.385387 
	C129.113815,18.131382 130.621521,16.056025 131.974670,13.901076 
	C132.654877,14.697752 133.335083,15.494428 133.729996,16.651844 
	C132.328705,18.281424 130.462296,19.422899 130.221725,20.840324 
	C128.918732,28.517382 128.017838,36.262688 126.690529,44.203133 
	C125.594643,47.272938 124.786629,50.124092 123.653076,53.095558 
	C120.050385,59.967377 116.687790,66.680412 113.608269,73.520889 
	C113.238739,74.341705 114.405716,75.854256 114.878128,77.186943 
	C114.895737,77.327698 114.922714,77.610130 114.922714,77.610130 
z"/>
<path fill="#93A330" opacity="1.000000" stroke="none" 
	d="
M119.970558,8.975015 
	C122.021103,8.958346 124.071648,8.941679 126.247047,9.480366 
	C126.240814,10.348406 126.109726,10.661092 125.730217,10.912201 
	C124.989609,11.567631 124.497414,12.284638 124.005501,13.251621 
	C124.005775,13.501595 124.012444,14.001501 123.682480,14.141533 
	C119.569656,19.411022 121.037338,25.736509 119.472664,31.279968 
	C116.166847,42.992107 111.868782,54.424183 107.669746,66.081062 
	C105.912766,67.131256 104.463783,68.071526 103.036743,68.643753 
	C105.701668,62.848698 108.344666,57.421700 110.999031,51.592110 
	C111.834503,48.345230 112.572525,45.472267 113.507729,42.664986 
	C114.384476,40.033195 116.010223,37.539375 116.349236,34.863571 
	C117.022972,29.545931 117.010963,24.143127 117.356964,18.780333 
	C117.407501,17.997145 117.927223,17.255461 118.129158,16.468727 
	C118.768631,13.977411 119.360367,11.473845 119.970558,8.975015 
z"/>
<path fill="#1382A7" opacity="1.000000" stroke="none" 
	d="
M148.008316,75.022247 
	C148.670914,80.402046 149.333527,85.781845 149.834930,91.859459 
	C150.140015,95.461685 150.389832,98.426964 151.180786,101.240089 
	C151.490494,102.341675 153.014069,103.101974 153.984985,104.415894 
	C153.992355,105.875847 153.999542,106.937622 153.773102,108.162430 
	C152.406662,108.196686 151.273804,108.067909 150.140961,107.939133 
	C150.140961,107.939133 150.058777,107.927559 150.043610,107.541580 
	C148.846680,105.421013 147.664902,103.686409 146.483124,101.951813 
	C146.392899,101.777954 146.302689,101.604095 146.109894,100.832382 
	C145.404221,99.462440 144.801117,98.690338 144.197998,97.918236 
	C144.197998,97.918236 144.083344,97.907677 144.065857,97.552544 
	C143.492584,96.453171 142.936783,95.708939 142.380997,94.964699 
	C141.645950,93.845787 140.910904,92.726883 140.145569,91.030548 
	C140.146347,90.282616 140.177444,90.112099 140.395447,90.151848 
	C141.163406,90.859306 141.744415,91.356499 143.127930,92.540421 
	C142.808228,88.708641 142.059586,85.750702 142.457977,82.956284 
	C142.933594,79.620033 142.987167,75.415939 148.008316,75.022247 
z"/>
<path fill="#123E79" opacity="1.000000" stroke="none" 
	d="
M187.986816,58.996460 
	C187.989044,57.609081 187.991287,56.221706 188.076370,54.086502 
	C190.094452,51.251060 192.029709,49.163448 193.964951,47.075836 
	C195.281158,48.818390 196.597382,50.560944 197.778442,52.911308 
	C196.367294,56.696487 198.531708,56.872627 200.711029,57.035759 
	C200.768143,57.193027 200.825272,57.350300 201.041687,57.927608 
	C201.353622,58.571827 201.533478,58.771507 201.740524,58.946690 
	C201.804794,59.115711 201.869049,59.284729 202.009109,59.714157 
	C200.936981,59.940418 199.732193,60.120308 198.651398,59.833267 
	C194.933640,58.845901 194.037872,60.670689 193.962982,63.939480 
	C193.877029,67.691093 193.451141,71.434921 193.089828,75.590103 
	C192.560928,75.998451 192.115128,75.998817 191.335083,75.998528 
	C190.019150,72.263573 189.037491,68.529289 188.027023,63.980736 
	C187.994415,61.776470 187.990616,60.386463 187.986816,58.996460 
z"/>
<path fill="#297F51" opacity="1.000000" stroke="none" 
	d="
M124.011383,77.655960 
	C122.279083,77.695755 120.546776,77.735542 118.489441,77.348251 
	C120.111923,71.282097 122.059441,65.643028 124.329025,59.875633 
	C126.766785,54.498913 128.882477,49.250526 131.287048,43.871258 
	C132.379837,43.494438 133.183777,43.248497 133.982330,43.400295 
	C133.503525,45.549973 132.887650,47.277824 132.586456,49.058891 
	C131.972229,52.691086 131.527512,56.351952 130.985626,60.372452 
	C128.642670,66.381256 126.327019,72.018608 124.011383,77.655960 
z"/>
<path fill="#1D7434" opacity="1.000000" stroke="none" 
	d="
M75.852745,128.422821 
	C78.798866,128.526047 80.534996,127.282204 82.589211,124.803688 
	C84.542908,122.446457 88.290398,121.575935 91.897705,120.191124 
	C94.259438,119.935699 96.008972,119.655037 97.678658,119.123512 
	C101.803680,117.810356 105.892097,116.382233 109.995232,115.000320 
	C106.328400,119.544647 102.365479,123.025810 96.168869,124.592804 
	C91.033043,125.891556 86.584183,129.906830 81.283096,133.042709 
	C80.734352,132.712357 79.364487,131.887665 77.679672,131.017288 
	C76.890762,130.228577 76.416809,129.485535 75.852745,128.422821 
z"/>
<path fill="#178EB3" opacity="1.000000" stroke="none" 
	d="
M148.008423,74.569183 
	C142.987167,75.415939 142.933594,79.620033 142.457977,82.956284 
	C142.059586,85.750702 142.808228,88.708641 143.127930,92.540421 
	C141.744415,91.356499 141.163406,90.859306 140.289520,89.792427 
	C137.334961,84.892799 135.896240,80.311691 137.113724,75.185074 
	C137.113724,75.185074 137.112335,75.102531 137.478271,75.005928 
	C138.102234,74.123131 138.360275,73.336937 138.618332,72.550751 
	C139.009354,71.846100 139.400375,71.141449 140.305603,70.129715 
	C141.231857,68.943474 141.643906,68.064308 142.055954,67.185143 
	C142.110352,66.972008 142.164764,66.758881 142.469482,66.153687 
	C142.871887,65.617294 142.982864,65.446274 143.052719,65.248558 
	C143.052719,65.248558 143.067749,65.059441 143.160858,65.040146 
	C145.311386,63.314167 147.368820,61.607491 149.636459,59.726429 
	C149.021942,65.158241 148.515228,69.637177 148.008423,74.569183 
z"/>
<path fill="#D85C2A" opacity="1.000000" stroke="none" 
	d="
M58.585602,46.801655 
	C56.827980,47.214077 54.720016,47.423733 52.029007,48.028191 
	C50.620808,48.608372 49.795658,48.793747 48.558937,48.974831 
	C46.771980,48.978611 45.396603,48.986683 43.681480,48.989449 
	C42.888767,48.990017 42.435795,48.995903 41.541443,48.992985 
	C33.459343,48.301971 27.493349,50.824036 23.653080,58.131561 
	C20.909786,61.542572 18.449564,64.776924 15.989340,68.011284 
	C14.978556,68.974968 13.967770,69.938644 12.644747,70.902588 
	C15.663704,64.839371 19.073988,58.817596 22.299965,52.698650 
	C24.691326,48.162785 28.478518,46.251431 33.394203,46.286896 
	C41.674877,46.346634 49.954945,46.490444 58.585602,46.801655 
z"/>
<path fill="#186348" opacity="1.000000" stroke="none" 
	d="
M146.379242,122.172585 
	C145.249359,123.864601 144.119461,125.556618 142.604950,127.378067 
	C141.487747,125.945900 140.028198,124.325119 140.149673,122.833046 
	C140.649399,116.694145 136.920670,114.440514 131.926041,112.668915 
	C130.234726,110.891724 128.617966,109.446846 127.001236,107.602173 
	C127.001747,106.136238 127.002243,105.070107 127.308960,103.863472 
	C129.079956,102.479279 130.544739,101.235588 132.243805,100.227036 
	C136.693176,106.005035 142.002502,110.848610 142.919678,118.419441 
	C143.085724,119.790077 145.176849,120.927498 146.379242,122.172585 
z"/>
<path fill="#185784" opacity="1.000000" stroke="none" 
	d="
M181.007935,94.002792 
	C178.827621,100.943108 177.642975,107.822853 182.139801,114.634491 
	C179.326385,114.949860 176.618744,114.981339 173.470779,114.918503 
	C173.943756,113.736069 174.857056,112.647942 175.788391,111.538322 
	C171.154297,108.328186 170.565521,102.785233 173.924911,96.755363 
	C174.869812,95.059364 175.698700,93.298744 177.126648,91.346909 
	C178.779800,91.416084 179.887115,91.706116 180.996033,92.330582 
	C181.001068,93.110939 181.004501,93.556862 181.007935,94.002792 
z"/>
<path fill="#A7AA30" opacity="1.000000" stroke="none" 
	d="
M119.647072,8.886927 
	C119.360367,11.473845 118.768631,13.977411 118.129158,16.468727 
	C117.927223,17.255461 117.407501,17.997145 117.356964,18.780333 
	C117.010963,24.143127 117.022972,29.545931 116.349236,34.863571 
	C116.010223,37.539375 114.384476,40.033195 113.507729,42.664986 
	C112.572525,45.472267 111.834503,48.345230 110.663269,51.656586 
	C109.214607,52.417358 108.113068,52.711071 107.076080,52.644829 
	C107.420517,50.853149 107.700401,49.421413 107.983032,47.657677 
	C107.988693,46.882961 107.991608,46.440250 108.286011,45.786930 
	C110.380333,39.297024 112.312996,33.051292 113.948059,26.728609 
	C115.465485,20.860794 116.665192,14.910816 118.004799,8.997017 
	C118.444397,8.930958 118.883987,8.864899 119.647072,8.886927 
z"/>
<path fill="#185B3F" opacity="1.000000" stroke="none" 
	d="
M132.000610,113.001221 
	C136.920670,114.440514 140.649399,116.694145 140.149673,122.833046 
	C140.028198,124.325119 141.487747,125.945900 142.507843,127.708046 
	C140.741852,131.479691 138.688370,135.050781 136.098785,138.831177 
	C135.372131,139.033127 135.181564,139.025803 135.003967,138.590912 
	C135.335037,136.055786 135.792984,133.958344 135.946136,131.838882 
	C136.510437,124.030014 135.406570,122.063454 129.001343,118.625221 
	C128.999954,117.499969 128.999069,116.749802 129.283859,115.856323 
	C130.379913,114.809090 131.190262,113.905159 132.000610,113.001221 
z"/>
<path fill="#166756" opacity="1.000000" stroke="none" 
	d="
M146.588928,121.894073 
	C145.176849,120.927498 143.085724,119.790077 142.919678,118.419441 
	C142.002502,110.848610 136.693176,106.005035 132.241882,99.800613 
	C131.345581,96.761215 130.685486,94.383369 130.026093,91.612038 
	C130.038086,90.431282 130.049377,89.644028 130.060669,88.856766 
	C134.026505,94.684486 138.076523,100.457397 141.922394,106.363243 
	C143.821045,109.278870 145.677124,112.313004 146.902145,115.540352 
	C147.569656,117.298943 146.877518,119.573631 146.588928,121.894073 
z"/>
<path fill="#1C68A1" opacity="1.000000" stroke="none" 
	d="
M163.116119,45.553719 
	C163.830933,45.541172 164.545731,45.528629 165.545410,45.958939 
	C165.111099,50.834545 163.654449,55.303707 163.871048,59.690254 
	C164.108505,64.499649 165.889511,69.232834 166.704483,74.223618 
	C165.908798,75.978889 165.509567,77.553764 164.879227,79.029945 
	C164.012985,81.058655 162.971741,83.012650 162.004303,84.557693 
	C161.334274,80.077240 160.665405,76.037735 159.996796,71.531250 
	C160.974258,62.790260 161.951431,54.516262 162.989670,46.073986 
	C163.050735,45.905712 163.116119,45.553719 163.116119,45.553719 
z"/>
<path fill="#1E6F76" opacity="1.000000" stroke="none" 
	d="
M144.981873,35.085793 
	C149.673294,41.091171 148.369064,46.567635 144.247757,52.451626 
	C140.372070,57.984955 137.377701,64.135582 133.675659,69.742798 
	C134.088501,67.532326 135.027847,65.642906 135.504486,63.643211 
	C136.180862,60.805473 136.516571,57.886536 137.182892,54.707100 
	C139.905914,47.969872 142.443893,41.527836 144.981873,35.085793 
z"/>
<path fill="#1A5998" opacity="1.000000" stroke="none" 
	d="
M172.780579,45.519348 
	C173.568924,45.769547 173.991379,45.941017 174.515091,46.461014 
	C172.619537,50.631775 170.705139,54.244133 172.164383,59.015491 
	C173.641678,63.845913 174.095062,68.989479 174.653290,74.076324 
	C172.541794,74.772171 170.773956,75.387581 169.004822,75.669060 
	C169.002151,74.889885 169.000778,74.444633 169.286591,73.785950 
	C169.725586,71.431068 170.385071,69.176414 169.937378,67.168640 
	C168.373611,60.155365 166.069214,53.228504 170.131439,46.145020 
	C170.529938,45.911739 170.741074,45.756943 170.932602,45.575390 
	C171.426620,45.530468 171.920654,45.485542 172.780579,45.519348 
z"/>
<path fill="#1B5F9D" opacity="1.000000" stroke="none" 
	d="
M169.963715,46.250259 
	C166.069214,53.228504 168.373611,60.155365 169.937378,67.168640 
	C170.385071,69.176414 169.725586,71.431068 168.953033,73.786285 
	C167.887482,73.999786 167.442703,73.999504 166.997910,73.999222 
	C165.889511,69.232834 164.108505,64.499649 163.871048,59.690254 
	C163.654449,55.303707 165.111099,50.834545 165.884827,46.078247 
	C166.420441,45.667744 166.901489,45.580780 167.961533,45.669525 
	C169.014923,45.980240 169.489319,46.115250 169.963715,46.250259 
z"/>
<path fill="#B9AE2D" opacity="1.000000" stroke="none" 
	d="
M117.593475,8.911287 
	C116.665192,14.910816 115.465485,20.860794 113.948059,26.728609 
	C112.312996,33.051292 110.380333,39.297024 108.121002,45.486431 
	C107.775383,42.263779 107.886269,39.131020 107.999176,35.666794 
	C108.004242,34.893501 108.007294,34.451672 108.344353,33.851627 
	C110.120850,25.463230 111.563339,17.233053 113.005836,9.002875 
	C114.397942,8.943770 115.790039,8.884665 117.593475,8.911287 
z"/>
<path fill="#329035" opacity="1.000000" stroke="none" 
	d="
M97.997986,97.997864 
	C94.379944,99.609901 90.387276,100.331650 88.623566,104.959824 
	C87.943520,106.744339 84.759132,107.574501 82.358139,108.671097 
	C81.999222,108.333313 81.997940,108.163910 81.996651,107.994499 
	C88.282608,100.387276 94.568565,92.780045 100.861259,84.854965 
	C101.949799,84.350510 103.031601,84.163910 104.518234,84.388084 
	C104.072144,86.530983 103.262840,88.285133 102.360725,89.990173 
	C100.939278,92.676750 99.455421,95.330322 97.997986,97.997864 
z"/>
<path fill="#DBBA21" opacity="1.000000" stroke="none" 
	d="
M102.994850,37.002205 
	C102.950851,35.554329 102.906853,34.106449 102.925125,31.867006 
	C103.110985,27.515886 103.511810,23.935356 103.244751,20.405357 
	C103.104805,18.555601 101.793282,16.794485 101.009140,14.567369 
	C101.003212,12.437266 100.998978,10.733135 100.994751,9.029004 
	C103.040947,8.962552 105.087135,8.896100 107.567215,9.371818 
	C107.997795,14.273627 107.994492,18.633266 107.654358,23.157005 
	C106.870384,24.818510 106.445953,26.323153 105.971390,27.811817 
	C104.993385,30.879797 103.988609,33.939247 102.994850,37.002205 
z"/>
<path fill="#177465" opacity="1.000000" stroke="none" 
	d="
M144.852722,34.792816 
	C142.443893,41.527836 139.905914,47.969872 136.951019,54.936836 
	C135.031586,56.974712 133.529068,58.487659 132.092896,59.628250 
	C134.400269,52.564465 136.590729,45.855465 138.906113,39.189854 
	C139.892166,36.351162 141.139404,33.603188 142.267929,30.813980 
	C143.086472,32.042599 143.905014,33.271217 144.852722,34.792816 
z"/>
<path fill="#187D6C" opacity="1.000000" stroke="none" 
	d="
M132.026566,60.000610 
	C133.529068,58.487659 135.031586,56.974712 136.765991,55.232033 
	C136.516571,57.886536 136.180862,60.805473 135.504486,63.643211 
	C135.027847,65.642906 134.088501,67.532326 133.354965,69.852707 
	C133.354172,70.234436 133.285568,70.200768 133.041000,70.344368 
	C132.551956,71.026093 132.307480,71.564209 132.063004,72.102333 
	C132.063004,72.102333 132.046173,72.034981 131.962341,72.117035 
	C131.676224,72.443275 131.661423,72.704376 131.834122,72.982391 
	C131.003876,76.813713 128.408813,78.052742 124.398361,77.718567 
	C126.327019,72.018608 128.642670,66.381256 131.238968,60.373726 
	C131.688614,60.002563 131.857590,60.001587 132.026566,60.000610 
z"/>
<path fill="#207758" opacity="1.000000" stroke="none" 
	d="
M132.092896,59.628254 
	C131.857590,60.001587 131.688614,60.002563 131.266296,60.002274 
	C131.527512,56.351952 131.972229,52.691086 132.586456,49.058891 
	C132.887650,47.277824 133.503525,45.549973 133.985413,43.024090 
	C133.994400,41.497921 133.994949,40.745701 134.205109,39.693504 
	C136.263550,35.462616 135.271408,29.992247 140.613403,27.954185 
	C141.098572,28.696678 141.583755,29.439171 142.168427,30.497822 
	C141.139404,33.603188 139.892166,36.351162 138.906113,39.189854 
	C136.590729,45.855465 134.400269,52.564465 132.092896,59.628254 
z"/>
<path fill="#3D8942" opacity="1.000000" stroke="none" 
	d="
M124.006958,60.003971 
	C122.059441,65.643028 120.111923,71.282097 118.063255,77.265442 
	C117.506287,77.645439 117.050461,77.681168 116.095062,77.539795 
	C115.367088,77.218704 115.122101,77.113197 114.860519,77.046188 
	C114.405716,75.854256 113.238739,74.341705 113.608269,73.520889 
	C116.687790,66.680412 120.050385,59.967377 123.660873,53.535957 
	C123.998482,55.905354 124.002724,57.954662 124.006958,60.003971 
z"/>
<path fill="#2C7C4B" opacity="1.000000" stroke="none" 
	d="
M133.995499,39.993477 
	C133.994949,40.745701 133.994400,41.497921 133.990784,42.626350 
	C133.183777,43.248497 132.379837,43.494438 130.954620,43.869850 
	C129.890121,43.997612 129.446884,43.995907 129.006958,43.574516 
	C130.522064,35.288361 130.346756,26.908531 135.967010,20.292206 
	C136.888107,21.661123 137.809204,23.030041 138.471558,24.804007 
	C135.056778,29.637932 132.761185,34.312244 133.995499,39.993477 
z"/>
<path fill="#3B843F" opacity="1.000000" stroke="none" 
	d="
M135.726288,20.070589 
	C130.346756,26.908531 130.522064,35.288361 128.669495,43.575119 
	C127.878624,43.991764 127.428513,43.988121 126.978409,43.984478 
	C128.017838,36.262688 128.918732,28.517382 130.221725,20.840324 
	C130.462296,19.422899 132.328705,18.281424 133.829498,16.954563 
	C134.638046,17.880688 135.061798,18.864828 135.726288,20.070589 
z"/>
<path fill="#E5BF30" opacity="1.000000" stroke="none" 
	d="
M75.950127,29.920807 
	C79.374443,23.822502 82.651306,17.634718 86.277596,11.658979 
	C88.502579,7.992419 92.348778,7.661087 96.321335,8.250726 
	C92.739227,9.563308 88.874657,10.357854 87.834160,15.298763 
	C86.146729,17.921818 84.724342,20.328981 83.051102,22.546896 
	C80.850868,25.463339 78.453255,28.230864 76.108620,30.774406 
	C76.034515,30.297859 75.992325,30.109333 75.950127,29.920807 
z"/>
<path fill="#C9B42B" opacity="1.000000" stroke="none" 
	d="
M107.991196,22.992907 
	C107.994492,18.633266 107.997795,14.273627 108.002640,9.448254 
	C109.395966,8.937453 110.787750,8.892385 112.592682,8.925097 
	C111.563339,17.233053 110.120850,25.463230 108.340286,33.392399 
	C107.998535,29.725227 107.994865,26.359068 107.991196,22.992907 
z"/>
<path fill="#A1A62E" opacity="1.000000" stroke="none" 
	d="
M107.011536,53.004776 
	C108.113068,52.711071 109.214607,52.417358 110.651901,52.059174 
	C108.344666,57.421700 105.701668,62.848698 103.028122,68.887321 
	C102.997566,69.498947 102.980980,69.986343 102.642639,70.076294 
	C101.200981,72.388092 100.097649,74.609955 98.994316,76.831810 
	C98.539154,76.873901 98.083984,76.915993 97.220718,76.544281 
	C96.551956,74.760384 96.291306,73.390282 96.341042,71.886543 
	C98.760735,67.829094 100.870033,63.905289 102.988899,59.989136 
	C102.998466,59.996788 102.982971,59.986603 103.264114,59.821384 
	C104.357178,58.435471 105.169098,57.214775 106.113411,55.704971 
	C106.501053,54.612167 106.756294,53.808472 107.011536,53.004776 
z"/>
<path fill="#298C3B" opacity="1.000000" stroke="none" 
	d="
M98.311058,98.054276 
	C99.455421,95.330322 100.939278,92.676750 102.360725,89.990173 
	C103.262840,88.285133 104.072144,86.530983 104.932739,84.436104 
	C105.409317,84.031761 105.876228,83.990181 106.842331,84.407532 
	C107.561836,87.576988 107.782135,90.287491 107.727051,93.185387 
	C105.302078,95.248993 103.152489,97.125206 101.002899,99.001427 
	C100.209969,98.704514 99.417046,98.407600 98.311058,98.054276 
z"/>
<path fill="#268745" opacity="1.000000" stroke="none" 
	d="
M108.002441,92.998001 
	C107.782135,90.287491 107.561836,87.576988 107.180649,84.510071 
	C109.400513,84.390129 111.781250,84.626602 114.619553,85.180374 
	C115.387627,86.333351 115.698135,87.169014 116.006165,88.429443 
	C115.666573,91.236893 115.329468,93.619553 114.666260,95.889313 
	C112.227585,94.850266 110.115013,93.924133 108.002441,92.998001 
z"/>
<path fill="#DE5E1A" opacity="1.000000" stroke="none" 
	d="
M73.050247,97.060730 
	C71.764183,100.035393 70.478111,103.010056 69.074928,106.293709 
	C68.946846,106.863869 68.935875,107.125038 68.525795,107.804398 
	C67.410027,107.162239 66.693367,106.101875 66.181671,104.757912 
	C65.593094,101.316162 64.799568,98.158028 64.350739,94.981628 
	C66.126961,94.310127 67.558495,93.656898 69.251205,92.948792 
	C70.674767,93.928413 71.837135,94.962906 73.009285,96.263367 
	C73.029457,96.706459 73.039848,96.883591 73.050247,97.060730 
z"/>
<path fill="#D34D21" opacity="1.000000" stroke="none" 
	d="
M65.976715,105.041519 
	C66.693367,106.101875 67.410027,107.162239 68.382156,108.169243 
	C66.688232,110.350449 64.738823,112.584999 62.363541,114.831345 
	C61.328384,114.395447 60.719101,113.947739 60.327827,113.045082 
	C60.824574,111.265991 61.425980,109.914444 61.316326,108.623291 
	C61.071617,105.741852 60.472019,102.890541 60.302311,100.209167 
	C62.383984,101.941414 64.180351,103.491463 65.976715,105.041519 
z"/>
<path fill="#629430" opacity="1.000000" stroke="none" 
	d="
M125.978638,10.973778 
	C126.109726,10.661092 126.240814,10.348406 126.590622,9.576138 
	C128.495285,10.492895 130.181213,11.869234 131.920914,13.573324 
	C130.621521,16.056025 129.113815,18.131382 127.953018,20.385387 
	C126.381866,23.436182 125.076881,26.624048 123.403893,29.480370 
	C123.437531,24.138920 123.724983,19.070210 124.012444,14.001501 
	C124.012444,14.001501 124.005775,13.501595 124.294907,13.159822 
	C125.048912,12.203292 125.513771,11.588535 125.978638,10.973778 
z"/>
<path fill="#184D36" opacity="1.000000" stroke="none" 
	d="
M124.131378,151.543518 
	C123.264328,151.948135 122.400040,152.697296 121.529808,152.704269 
	C112.453827,152.777039 103.376312,152.776352 94.300865,152.663788 
	C93.059608,152.648392 91.827301,151.910995 90.645172,151.245224 
	C91.135902,150.982590 91.572304,150.982635 92.461868,150.987213 
	C95.942482,150.991058 98.969940,150.990341 102.463745,150.991608 
	C107.624886,150.993134 112.319672,150.992661 117.391800,150.991913 
	C119.182899,150.661087 120.596664,150.330536 122.340263,150.000168 
	C123.109741,150.000427 123.549377,150.000519 124.024879,150.386322 
	C124.084290,151.029175 124.107834,151.286346 124.131378,151.543518 
z"/>
<path fill="#228558" opacity="1.000000" stroke="none" 
	d="
M116.008652,88.004669 
	C115.698135,87.169014 115.387627,86.333351 115.016785,85.167633 
	C120.208344,84.533562 125.750755,82.981651 129.880692,88.563416 
	C130.049377,89.644028 130.038086,90.431282 129.685944,91.466049 
	C127.896851,91.476395 126.448586,91.239235 124.846733,90.669998 
	C121.798309,89.560165 118.903481,88.782417 116.008652,88.004669 
z"/>
<path fill="#358B33" opacity="1.000000" stroke="none" 
	d="
M81.656815,108.073357 
	C81.997940,108.163910 81.999222,108.333313 82.002853,108.756958 
	C79.611153,112.337059 77.186020,115.641243 74.841621,119.001740 
	C74.120773,120.035027 73.620598,121.222267 72.985748,122.707474 
	C70.040054,119.879066 70.836464,116.609421 73.002899,113.114410 
	C75.935768,111.324852 78.626373,109.738533 81.656815,108.073357 
z"/>
<path fill="#C4AB25" opacity="1.000000" stroke="none" 
	d="
M96.030647,72.020187 
	C96.291306,73.390282 96.551956,74.760384 96.884125,76.471863 
	C95.525070,76.870087 94.094498,76.926918 92.333923,76.467926 
	C92.000824,72.966927 91.997742,69.981750 91.994659,66.996582 
	C91.994659,66.996582 92.004295,66.504822 92.345825,66.176331 
	C94.783958,63.890236 96.880577,61.932644 98.986694,59.985321 
	C98.996201,59.995594 99.012718,60.015106 98.982712,60.389584 
	C97.978683,64.516106 97.004669,68.268143 96.030647,72.020187 
z"/>
<path fill="#689732" opacity="1.000000" stroke="none" 
	d="
M114.994133,62.994362 
	C113.372818,67.411743 111.751503,71.829117 109.754074,76.643494 
	C108.651619,77.276253 107.925285,77.512009 107.198952,77.747765 
	C105.373718,77.583244 103.548477,77.418716 101.518105,76.889435 
	C101.524261,76.320847 101.755905,76.143623 102.385620,75.989319 
	C107.624496,75.384682 108.004288,71.824738 108.353195,67.936203 
	C110.456352,65.564026 112.226341,63.280067 114.119713,61.246780 
	C114.493439,61.996426 114.743790,62.495392 114.994133,62.994362 
z"/>
<path fill="#EFC925" opacity="1.000000" stroke="none" 
	d="
M87.987587,14.998669 
	C88.874657,10.357854 92.739227,9.563308 96.689102,8.303880 
	C98.087830,8.380922 99.188225,8.647652 100.641678,8.971693 
	C100.998978,10.733135 101.003212,12.437266 100.755524,14.568592 
	C100.334610,14.996983 100.165619,14.998178 99.742081,14.798853 
	C98.655617,14.399296 97.823692,14.200258 96.571472,14.000320 
	C93.429985,14.332502 90.708786,14.665585 87.987587,14.998669 
z"/>
<path fill="#E0AA2A" opacity="1.000000" stroke="none" 
	d="
M81.997780,60.025055 
	C82.710106,61.388222 83.630325,62.686604 84.080582,64.131439 
	C84.608360,65.825066 84.727264,67.646118 84.995529,69.778244 
	C82.004204,65.341423 79.040878,60.538261 76.117416,55.383690 
	C76.157272,55.032284 76.382713,54.938675 76.738419,54.956329 
	C78.049187,54.992729 79.004250,55.011475 79.963974,55.410690 
	C80.645027,57.202457 81.321404,58.613754 81.997780,60.025055 
z"/>
<path fill="#127597" opacity="1.000000" stroke="none" 
	d="
M150.194427,108.263519 
	C151.273804,108.067909 152.406662,108.196686 154.028122,108.160080 
	C154.686798,107.992630 154.856842,107.990555 155.378113,108.063858 
	C158.589844,109.086609 161.378098,110.099083 160.986313,113.975822 
	C158.809830,113.760979 156.633362,113.546143 154.041351,113.423798 
	C153.625824,113.516281 153.633636,113.477432 153.565292,113.194290 
	C153.068024,112.602440 152.639084,112.293716 152.210159,111.984993 
	C151.556061,110.852631 150.901962,109.720268 150.194427,108.263519 
z"/>
<path fill="#144283" opacity="1.000000" stroke="none" 
	d="
M193.719391,46.786621 
	C192.029709,49.163448 190.094452,51.251060 188.075073,53.670284 
	C186.849747,53.613522 185.708527,53.225143 184.567322,52.836765 
	C185.146591,51.819328 185.667847,50.762749 186.320816,49.795044 
	C187.027954,48.747028 187.857925,47.781898 188.787415,46.491783 
	C190.451599,46.301094 191.962723,46.399250 193.719391,46.786621 
z"/>
<path fill="#BF9526" opacity="1.000000" stroke="none" 
	d="
M75.705635,30.042416 
	C75.992325,30.109333 76.034515,30.297859 75.997040,31.109406 
	C74.565796,34.377007 73.214226,37.021580 71.665573,39.862820 
	C71.311348,40.392559 71.154213,40.725632 70.937576,41.289749 
	C70.878082,41.520794 70.892181,41.997749 70.844406,42.355728 
	C70.830856,43.195232 70.865074,43.676754 70.944183,44.500771 
	C71.454620,46.137089 71.920158,47.430916 72.287582,48.795250 
	C72.189461,48.865757 71.993637,49.007351 71.993637,49.007351 
	C68.297821,45.254311 68.551277,41.228920 71.167831,37.040127 
	C72.599388,34.748375 74.030075,32.456078 75.705635,30.042416 
z"/>
<path fill="#297F51" opacity="1.000000" stroke="none" 
	d="
M134.205109,39.693504 
	C132.761185,34.312244 135.056778,29.637932 138.551300,25.113617 
	C139.402405,25.817802 139.915009,26.617428 140.520508,27.685619 
	C135.271408,29.992247 136.263550,35.462616 134.205109,39.693504 
z"/>
<path fill="#106980" opacity="1.000000" stroke="none" 
	d="
M136.798431,75.327789 
	C135.896240,80.311691 137.334961,84.892799 140.102600,89.582169 
	C140.177444,90.112099 140.146347,90.282616 140.058258,90.706589 
	C135.570099,86.536942 132.888397,81.716499 136.798431,75.327789 
z"/>
<path fill="#1C5637" opacity="1.000000" stroke="none" 
	d="
M124.529510,151.518829 
	C124.107834,151.286346 124.084290,151.029175 124.357513,150.311768 
	C126.437080,147.902145 128.219894,145.952789 130.255157,143.879242 
	C131.009888,143.500153 131.512177,143.245255 132.203796,143.207062 
	C132.598068,143.956253 132.802994,144.488739 133.007919,145.021240 
	C132.668381,145.847275 132.328842,146.673325 131.705490,147.915390 
	C131.258469,148.500275 131.113739,148.683701 130.987473,148.881683 
	C128.967529,149.752487 126.947594,150.623306 124.529510,151.518829 
z"/>
<path fill="#D4AE1D" opacity="1.000000" stroke="none" 
	d="
M91.689941,67.107903 
	C91.997742,69.981750 92.000824,72.966927 92.001648,76.395981 
	C90.802139,76.627274 89.604904,76.414688 88.187057,75.536705 
	C87.975243,73.920959 87.984016,72.970619 87.992798,72.020271 
	C89.123611,70.419922 90.254417,68.819572 91.689941,67.107903 
z"/>
<path fill="#1C5637" opacity="1.000000" stroke="none" 
	d="
M92.008713,150.982666 
	C91.572304,150.982635 91.135902,150.982590 90.372482,150.983185 
	C87.678032,147.575165 85.310600,144.166489 82.887253,140.398102 
	C83.311790,140.034714 83.792236,140.031067 84.700974,140.359711 
	C86.419205,142.463654 87.709129,144.235260 89.075653,146.329468 
	C90.104408,148.095581 91.056564,149.539124 92.008713,150.982666 
z"/>
<path fill="#93A330" opacity="1.000000" stroke="none" 
	d="
M102.007912,75.992996 
	C101.755905,76.143623 101.524261,76.320847 101.168167,76.688599 
	C100.570595,76.888443 100.117828,76.924347 99.329689,76.896027 
	C100.097649,74.609955 101.200981,72.388092 102.624397,70.458473 
	C102.632301,72.498138 102.320107,74.245567 102.007912,75.992996 
z"/>
<path fill="#184D36" opacity="1.000000" stroke="none" 
	d="
M133.290222,144.828674 
	C132.802994,144.488739 132.598068,143.956253 132.362976,142.938675 
	C133.218857,141.308563 134.104919,140.163513 134.990982,139.018478 
	C135.181564,139.025803 135.372131,139.033127 135.848724,139.053802 
	C135.280685,140.923477 134.426605,142.779800 133.290222,144.828674 
z"/>
<path fill="#11396E" opacity="1.000000" stroke="none" 
	d="
M200.637222,56.737663 
	C198.531708,56.872627 196.367294,56.696487 197.845001,53.248524 
	C198.885605,54.131809 199.724518,55.285690 200.637222,56.737663 
z"/>
<path fill="#127597" opacity="1.000000" stroke="none" 
	d="
M146.540985,102.267578 
	C147.664902,103.686409 148.846680,105.421013 150.050888,107.500732 
	C148.915161,106.091682 147.757004,104.337509 146.540985,102.267578 
z"/>
<path fill="#E0AA2A" opacity="1.000000" stroke="none" 
	d="
M87.718773,71.888130 
	C87.984016,72.970619 87.975243,73.920959 87.961563,75.226593 
	C86.998306,74.257446 86.039940,72.933029 85.117920,71.286560 
	C85.917763,71.228340 86.681259,71.492165 87.718773,71.888130 
z"/>
<path fill="#BF9526" opacity="1.000000" stroke="none" 
	d="
M76.035217,55.031952 
	C75.015930,53.837421 74.118690,52.643227 73.246956,51.086121 
	C73.272461,50.723213 73.468994,50.522511 73.752182,50.706551 
	C74.817818,52.239952 75.600266,53.589314 76.382713,54.938675 
	C76.382713,54.938675 76.157272,55.032284 76.035217,55.031952 
z"/>
<path fill="#124582" opacity="1.000000" stroke="none" 
	d="
M162.710266,45.435364 
	C163.116119,45.553719 163.050735,45.905712 162.558960,46.031219 
	C160.042145,46.266178 158.017090,46.375626 155.992035,46.485069 
	C155.992035,46.485073 155.949661,46.212257 155.990875,46.079971 
	C158.122864,45.737461 160.213638,45.527237 162.710266,45.435364 
z"/>
<path fill="#E13A22" opacity="1.000000" stroke="none" 
	d="
M7.686649,79.265625 
	C7.993981,80.718178 8.008296,82.384377 8.011651,84.465424 
	C7.798338,83.079941 7.595985,81.279610 7.686649,79.265625 
z"/>
<path fill="#127597" opacity="1.000000" stroke="none" 
	d="
M144.233948,98.220818 
	C144.801117,98.690338 145.404221,99.462440 146.030701,100.549454 
	C145.459335,100.084045 144.864624,99.303719 144.233948,98.220818 
z"/>
<path fill="#127597" opacity="1.000000" stroke="none" 
	d="
M142.358093,95.264877 
	C142.936783,95.708939 143.492584,96.453171 144.072754,97.495392 
	C143.509827,97.050598 142.922516,96.307823 142.358093,95.264877 
z"/>
<path fill="#1A7AA6" opacity="1.000000" stroke="none" 
	d="
M141.780594,67.309090 
	C141.643906,68.064308 141.231857,68.943474 140.537796,69.936035 
	C140.672272,69.177307 141.088760,68.305176 141.780594,67.309090 
z"/>
<path fill="#106980" opacity="1.000000" stroke="none" 
	d="
M138.348053,72.711739 
	C138.360275,73.336937 138.102234,74.123131 137.519531,75.006607 
	C137.489182,74.360168 137.783478,73.616447 138.348053,72.711739 
z"/>
<path fill="#297F51" opacity="1.000000" stroke="none" 
	d="
M107.562027,77.796616 
	C107.925285,77.512009 108.651619,77.276253 109.673386,77.012436 
	C110.180702,77.109581 110.386398,77.244217 110.719360,77.512650 
	C109.876900,77.706490 108.901001,77.775978 107.562027,77.796616 
z"/>
<path fill="#C83527" opacity="1.000000" stroke="none" 
	d="
M12.101519,92.292480 
	C12.649927,92.779846 13.301164,93.559578 13.962868,94.673134 
	C13.383673,94.199593 12.794010,93.392212 12.101519,92.292480 
z"/>
<path fill="#144373" opacity="1.000000" stroke="none" 
	d="
M207.552368,89.234306 
	C207.758636,88.926575 208.270370,88.599503 208.878937,88.487793 
	C208.603134,88.873749 208.230484,89.044357 207.552368,89.234306 
z"/>
<path fill="#124582" opacity="1.000000" stroke="none" 
	d="
M170.131439,46.145020 
	C169.489319,46.115250 169.014923,45.980240 168.326782,45.726959 
	C168.821945,45.527687 169.530823,45.446682 170.586151,45.470531 
	C170.741074,45.756943 170.529938,45.911739 170.131439,46.145020 
z"/>
<path fill="#BF9526" opacity="1.000000" stroke="none" 
	d="
M73.173592,50.822975 
	C72.753105,50.472546 72.431488,50.022358 72.051750,49.289761 
	C71.993637,49.007351 72.189461,48.865757 72.429726,49.016628 
	C72.936325,49.619171 73.202660,50.070839 73.468994,50.522511 
	C73.468994,50.522511 73.272461,50.723213 73.173592,50.822975 
z"/>
<path fill="#1E6F76" opacity="1.000000" stroke="none" 
	d="
M132.331085,71.945145 
	C132.307480,71.564209 132.551956,71.026093 133.039276,70.306198 
	C133.054459,70.678932 132.826828,71.233452 132.331085,71.945145 
z"/>
<path fill="#185E89" opacity="1.000000" stroke="none" 
	d="
M152.306763,112.234146 
	C152.639084,112.293716 153.068024,112.602440 153.576080,113.177994 
	C153.237930,113.124321 152.820648,112.803810 152.306763,112.234146 
z"/>
<path fill="#164C79" opacity="1.000000" stroke="none" 
	d="
M197.217804,108.883171 
	C197.218918,108.641487 197.427856,108.268715 197.803497,107.921257 
	C197.867432,108.268318 197.685898,108.536827 197.217804,108.883171 
z"/>
<path fill="#1A7AA6" opacity="1.000000" stroke="none" 
	d="
M142.862274,65.266724 
	C142.982864,65.446274 142.871887,65.617294 142.592255,65.847443 
	C142.314774,65.647163 142.383804,65.431038 142.862274,65.266724 
z"/>
<path fill="#11396E" opacity="1.000000" stroke="none" 
	d="
M201.690063,58.741356 
	C201.533478,58.771507 201.353622,58.571827 201.100952,58.171494 
	C201.271423,58.107574 201.484299,58.287804 201.690063,58.741356 
z"/>
<path fill="#1E6F76" opacity="1.000000" stroke="none" 
	d="
M131.919373,72.748627 
	C131.661423,72.704376 131.676224,72.443275 131.996948,72.114395 
	C132.115387,72.029701 132.004639,72.514862 131.919373,72.748627 
z"/>
<path fill="#297F51" opacity="1.000000" stroke="none" 
	d="
M114.878128,77.186943 
	C115.122101,77.113197 115.367088,77.218704 115.755455,77.481628 
	C115.750397,77.631134 115.585373,77.661713 115.171532,77.651207 
	C114.922714,77.610130 114.895737,77.327698 114.878128,77.186943 
z"/>
<path fill="#184D36" opacity="1.000000" stroke="none" 
	d="
M131.146454,148.792419 
	C131.113739,148.683701 131.258469,148.500275 131.548828,148.214294 
	C131.632935,148.348373 131.509399,148.550369 131.146454,148.792419 
z"/>
<path fill="#F3581F" opacity="1.000000" stroke="none" 
	d="
M16.310019,68.053558 
	C18.449564,64.776924 20.909786,61.542572 23.944733,58.250999 
	C25.003269,58.254837 25.590458,58.526123 25.955904,58.346436 
	C37.483173,52.678406 45.686466,55.038021 52.636906,65.910248 
	C54.505383,68.833015 56.935192,71.405563 58.712711,74.375092 
	C60.121258,76.728226 60.926559,79.442451 61.663506,81.919693 
	C58.218529,79.895576 55.109779,77.948097 52.001030,76.000610 
	C48.515137,71.877579 45.683865,67.243050 39.790089,65.653824 
	C33.511730,63.960907 27.643415,63.570854 21.757807,66.815254 
	C20.266600,67.637268 18.351187,67.689743 16.310019,68.053558 
z"/>
<path fill="#EE561B" opacity="1.000000" stroke="none" 
	d="
M52.077972,76.341324 
	C55.109779,77.948097 58.218529,79.895576 62.038101,81.920624 
	C63.498089,81.998184 64.247261,81.998177 65.068466,82.351898 
	C66.423683,86.138298 67.706856,89.570984 68.990021,93.003662 
	C67.558495,93.656898 66.126961,94.310127 64.083145,94.804672 
	C62.313858,93.762337 61.156853,92.878685 59.999847,91.995033 
	C60.317505,87.678757 59.391186,84.049843 55.435696,81.412964 
	C53.950745,80.423042 53.226158,78.292542 52.077972,76.341324 
z"/>
<path fill="#E84B1E" opacity="1.000000" stroke="none" 
	d="
M59.661751,91.919273 
	C61.156853,92.878685 62.313858,93.762337 63.738449,94.822937 
	C64.799568,98.158028 65.593094,101.316162 66.181671,104.757912 
	C64.180351,103.491463 62.383984,101.941414 59.942898,100.180450 
	C57.531021,99.310646 55.763863,98.651764 53.996700,97.992882 
	C53.043007,95.891113 52.089310,93.789345 51.066814,91.343460 
	C51.320133,90.216034 51.642258,89.432716 51.983070,88.323631 
	C54.442387,89.279747 56.883022,90.561630 59.661751,91.919273 
z"/>
<path fill="#154981" opacity="1.000000" stroke="none" 
	d="
M181.364548,93.931602 
	C181.004501,93.556862 181.001068,93.110939 181.068298,91.969864 
	C181.429382,84.849281 181.719833,78.423836 182.010269,71.998398 
	C185.178650,72.090416 186.581024,73.789154 187.053284,76.876144 
	C187.558929,80.181465 188.542892,83.413612 189.653778,86.836990 
	C189.375946,88.443451 188.762405,89.890625 188.076569,91.669250 
	C185.909897,92.620613 183.815536,93.240517 181.364548,93.931602 
z"/>
<path fill="#DC3F20" opacity="1.000000" stroke="none" 
	d="
M53.621986,97.994690 
	C55.763863,98.651764 57.531021,99.310646 59.657593,99.998245 
	C60.472019,102.890541 61.071617,105.741852 61.316326,108.623291 
	C61.425980,109.914444 60.824574,111.265991 60.256409,112.796112 
	C58.259762,112.995506 56.552540,112.988922 54.441475,112.625351 
	C55.805180,108.488403 52.710651,106.495895 50.996395,103.995949 
	C50.997356,102.282440 50.998318,100.568939 50.998878,98.427109 
	C51.748074,97.998016 52.497669,97.997261 53.621986,97.994690 
z"/>
<path fill="#DA3621" opacity="1.000000" stroke="none" 
	d="
M50.636288,103.910263 
	C52.710651,106.495895 55.805180,108.488403 54.013817,112.619171 
	C51.698032,112.071312 49.476212,110.759575 47.100140,110.355988 
	C41.318661,109.373985 35.430439,108.055695 29.652502,108.323685 
	C25.054523,108.536957 22.563080,107.219551 20.754465,103.372719 
	C20.126778,102.037666 19.119204,100.881203 18.131868,99.341217 
	C20.599230,97.676750 22.738472,98.067551 25.670177,99.231010 
	C29.664305,100.816109 34.449539,100.295715 38.832203,101.047493 
	C42.692078,101.709579 46.464909,102.879135 50.636288,103.910263 
z"/>
<path fill="#196232" opacity="1.000000" stroke="none" 
	d="
M88.999054,146.006882 
	C87.709129,144.235260 86.419205,142.463654 85.060669,140.358337 
	C87.280754,134.175858 92.536392,133.352524 97.763420,131.757263 
	C102.200920,130.402969 106.141907,127.421783 111.000336,125.099792 
	C113.131660,125.692444 114.565239,126.345764 115.730980,127.213646 
	C106.613747,133.581177 94.046974,134.438965 88.999054,146.006882 
z"/>
<path fill="#1F7839" opacity="1.000000" stroke="none" 
	d="
M110.279297,114.795799 
	C105.892097,116.382233 101.803680,117.810356 97.678658,119.123512 
	C96.008972,119.655037 94.259438,119.935699 92.274841,120.165955 
	C97.209526,115.519608 102.415596,111.037834 108.101624,106.102814 
	C110.052422,105.098061 111.523270,104.546555 113.145584,104.240662 
	C113.865837,104.991341 114.434631,105.496399 114.973526,106.400681 
	C114.627022,109.196877 114.310425,111.593864 113.993820,113.990845 
	C112.850334,114.190994 111.706848,114.391136 110.279297,114.795799 
z"/>
<path fill="#196237" opacity="1.000000" stroke="none" 
	d="
M115.998825,126.999084 
	C114.565239,126.345764 113.131660,125.692444 111.347633,125.018951 
	C113.540184,122.516647 116.083183,120.034523 119.207932,117.278198 
	C122.859177,116.669205 125.928673,116.334419 128.998169,115.999634 
	C128.999069,116.749802 128.999954,117.499969 128.668915,118.699516 
	C126.891518,120.765953 125.446045,122.383003 123.748856,124.242218 
	C120.997704,125.322617 118.498260,126.160851 115.998825,126.999084 
z"/>
<path fill="#1C6E3F" opacity="1.000000" stroke="none" 
	d="
M114.411301,113.993477 
	C114.310425,111.593864 114.627022,109.196877 115.366013,106.393227 
	C118.524857,105.322845 121.261299,104.659134 124.373337,103.996185 
	C125.500198,103.999298 126.251472,104.001633 127.002747,104.003967 
	C127.002243,105.070107 127.001747,106.136238 126.711548,107.776474 
	C123.948425,110.233498 121.474991,112.116409 119.001556,113.999329 
	C117.610626,113.998253 116.219704,113.997185 114.411301,113.993477 
z"/>
<path fill="#1A653F" opacity="1.000000" stroke="none" 
	d="
M119.001114,114.374771 
	C121.474991,112.116409 123.948425,110.233498 126.711540,108.176270 
	C128.617966,109.446846 130.234726,110.891724 131.926041,112.668915 
	C131.190262,113.905159 130.379913,114.809090 129.283859,115.856331 
	C125.928673,116.334419 122.859177,116.669205 119.395752,117.003525 
	C119.001442,116.252106 119.001053,115.501152 119.001114,114.374771 
z"/>
<path fill="#F5691A" opacity="1.000000" stroke="none" 
	d="
M48.970512,48.979126 
	C49.795658,48.793747 50.620808,48.608372 51.706909,48.243057 
	C55.229549,49.121277 58.491234,50.179424 61.900585,51.954285 
	C62.357815,53.764828 62.589920,54.887863 62.989468,55.947777 
	C65.637794,62.973198 68.322021,69.985085 70.656647,76.917763 
	C68.778557,74.458977 67.356293,71.995712 65.665619,69.732986 
	C63.912731,67.386993 61.899803,65.235291 59.999866,62.592361 
	C60.300026,59.277344 59.361187,57.282040 56.670586,55.607536 
	C53.829311,53.839268 51.515018,51.224243 48.970512,48.979126 
M60.528675,51.501083 
	C60.528675,51.501083 60.486271,51.517265 60.528675,51.501083 
z"/>
<path fill="#F5731C" opacity="1.000000" stroke="none" 
	d="
M70.994568,77.001381 
	C68.322021,69.985085 65.637794,62.973198 62.989468,55.947777 
	C62.589920,54.887863 62.357815,53.764828 62.058853,52.277954 
	C68.294403,52.362652 67.945915,58.566578 70.066025,62.089352 
	C73.116371,67.157822 74.113228,73.462143 75.655472,79.560791 
	C74.213905,79.590271 73.103432,79.297951 71.803467,78.792389 
	C71.407509,78.053238 71.201042,77.527306 70.994568,77.001381 
z"/>
<path fill="#EC6D1A" opacity="1.000000" stroke="none" 
	d="
M71.992950,79.005623 
	C73.103432,79.297951 74.213905,79.590271 75.662682,79.951218 
	C75.173714,85.533791 78.561996,91.683334 73.278702,96.810303 
	C73.039848,96.883591 73.029457,96.706459 72.925003,95.855240 
	C72.551620,89.789307 72.272278,84.397469 71.992950,79.005623 
z"/>
<path fill="#1E71A7" opacity="1.000000" stroke="none" 
	d="
M155.994492,46.874527 
	C158.017090,46.375626 160.042145,46.266178 162.497894,46.199493 
	C161.951431,54.516262 160.974258,62.790260 159.659241,71.594788 
	C158.215073,72.417290 157.108765,72.709259 156.001450,72.565048 
	C155.667938,69.417931 155.335403,66.706978 155.002884,63.996029 
	C155.334229,58.418682 155.665588,52.841335 155.994492,46.874527 
z"/>
<path fill="#1B71A0" opacity="1.000000" stroke="none" 
	d="
M156.002441,73.001221 
	C157.108765,72.709259 158.215073,72.417290 159.658966,72.061775 
	C160.665405,76.037735 161.334274,80.077240 161.997040,84.942337 
	C161.660812,87.513687 161.330688,89.259438 160.684784,91.069473 
	C159.246399,91.756752 158.123810,92.379738 156.812286,92.853653 
	C156.382858,92.489143 156.171539,92.248108 155.989441,91.981461 
	C155.985321,86.271446 155.981201,80.561440 155.988113,74.176239 
	C155.999161,73.501060 156.002441,73.001221 156.002441,73.001221 
z"/>
<path fill="#15759B" opacity="1.000000" stroke="none" 
	d="
M155.683014,92.047485 
	C156.171539,92.248108 156.382858,92.489143 156.839355,93.240753 
	C156.379196,98.514114 155.703049,103.251305 155.026901,107.988487 
	C154.856842,107.990555 154.686798,107.992630 154.261719,107.997040 
	C153.999542,106.937622 153.992355,105.875847 154.180603,104.135574 
	C153.917572,100.305771 153.459091,97.154480 153.000610,94.003181 
	C153.792603,93.373291 154.584610,92.743401 155.683014,92.047485 
z"/>
<path fill="#127597" opacity="1.000000" stroke="none" 
	d="
M152.707184,93.920303 
	C153.459091,97.154480 153.917572,100.305771 154.180420,103.737396 
	C153.014069,103.101974 151.490494,102.341675 151.180786,101.240089 
	C150.389832,98.426964 150.140015,95.461685 149.837860,92.279961 
	C150.805908,92.614243 151.609818,93.225838 152.707184,93.920303 
z"/>
<path fill="#1A7BA8" opacity="1.000000" stroke="none" 
	d="
M156.001450,72.565048 
	C156.002441,73.001221 155.999161,73.501060 155.997131,73.750992 
	C153.050995,74.803734 151.302689,74.422340 152.662689,70.756378 
	C153.406082,68.752510 154.029465,66.704117 154.854935,64.335915 
	C155.335403,66.706978 155.667938,69.417931 156.001450,72.565048 
z"/>
<path fill="#185293" opacity="1.000000" stroke="none" 
	d="
M174.996948,73.995880 
	C174.095062,68.989479 173.641678,63.845913 172.164383,59.015491 
	C170.705139,54.244133 172.619537,50.631775 174.742630,46.500965 
	C176.281982,46.192390 177.695068,46.192390 180.241516,46.192390 
	C174.501633,52.554512 177.617416,58.407085 178.723358,64.937759 
	C177.724609,69.094833 176.863220,72.547539 175.810944,75.787613 
	C175.412354,75.048599 175.204651,74.522240 174.996948,73.995880 
z"/>
<path fill="#165189" opacity="1.000000" stroke="none" 
	d="
M176.001816,76.000252 
	C176.863220,72.547539 177.724609,69.094833 178.801636,65.321648 
	C179.853073,67.163475 180.688873,69.325783 181.767456,71.743240 
	C181.719833,78.423836 181.429382,84.849281 181.066681,91.635437 
	C179.887115,91.706116 178.779800,91.416084 177.334106,91.063393 
	C176.993958,89.933380 176.992172,88.866028 176.989044,86.974564 
	C176.659058,82.767059 176.330444,79.383652 176.001816,76.000252 
z"/>
<path fill="#144283" opacity="1.000000" stroke="none" 
	d="
M187.685608,58.886086 
	C187.990616,60.386463 187.994415,61.776470 187.996979,63.583344 
	C183.403214,63.418545 184.753937,59.482296 183.305328,57.126080 
	C183.627747,56.856617 183.950150,56.587154 184.272568,56.317688 
	C185.309845,57.137028 186.347122,57.956367 187.685608,58.886086 
z"/>
<path fill="#23843D" opacity="1.000000" stroke="none" 
	d="
M112.994125,103.995041 
	C111.523270,104.546555 110.052422,105.098061 108.288162,105.826675 
	C105.882507,105.434250 103.770256,104.864693 101.327629,104.147263 
	C100.998657,102.611046 101.000053,101.222694 101.002182,99.417892 
	C103.152489,97.125206 105.302078,95.248993 107.727051,93.185387 
	C110.115013,93.924133 112.227585,94.850266 114.646118,96.253914 
	C114.636963,98.153244 114.321846,99.575066 113.873749,101.286118 
	C113.491882,102.381912 113.243004,103.188477 112.994125,103.995041 
z"/>
<path fill="#176D93" opacity="1.000000" stroke="none" 
	d="
M155.378113,108.063858 
	C155.703049,103.251305 156.379196,98.514114 157.028290,93.389832 
	C158.123810,92.379738 159.246399,91.756752 160.753418,91.420380 
	C162.093552,93.805748 163.049286,95.904503 164.005035,98.003250 
	C164.481888,102.267746 165.217896,106.530228 165.251175,110.798180 
	C165.259369,111.849442 162.978790,112.918533 161.368347,113.977623 
	C161.378098,110.099083 158.589844,109.086609 155.378113,108.063858 
z"/>
<path fill="#1B6697" opacity="1.000000" stroke="none" 
	d="
M164.242371,97.753265 
	C163.049286,95.904503 162.093552,93.805748 161.069183,91.356094 
	C161.330688,89.259438 161.660812,87.513687 161.998215,85.383293 
	C162.971741,83.012650 164.012985,81.058655 164.879227,79.029945 
	C165.509567,77.553764 165.908798,75.978889 166.704483,74.223618 
	C167.442703,73.999504 167.887482,73.999786 168.665833,73.999725 
	C169.000778,74.444633 169.002151,74.889885 169.030212,76.057541 
	C168.705811,81.853806 168.354736,86.927666 168.003662,92.001526 
	C166.829010,93.835442 165.654358,95.669357 164.242371,97.753265 
z"/>
<path fill="#195C91" opacity="1.000000" stroke="none" 
	d="
M168.379333,91.994797 
	C168.354736,86.927666 168.705811,81.853806 169.031494,76.391464 
	C170.773956,75.387581 172.541794,74.772171 174.653290,74.076324 
	C175.204651,74.522240 175.412354,75.048599 175.810944,75.787613 
	C176.330444,79.383652 176.659058,82.767059 176.986816,86.574326 
	C174.242310,88.661484 171.498657,90.324776 168.379333,91.994797 
z"/>
<path fill="#E9BA16" opacity="1.000000" stroke="none" 
	d="
M99.996620,14.999373 
	C100.165619,14.998178 100.334610,14.996983 100.757225,14.994564 
	C101.793282,16.794485 103.104805,18.555601 103.244751,20.405357 
	C103.511810,23.935356 103.110985,27.515886 102.983521,31.534033 
	C101.991508,33.778984 100.851410,35.499599 100.044693,37.364433 
	C97.909760,42.299644 96.918777,48.033997 90.364487,49.577419 
	C89.997711,48.132114 89.994423,47.063129 90.097038,45.671600 
	C90.801689,43.902218 91.400444,42.455379 92.321304,40.880013 
	C93.324554,39.650932 94.191284,38.623222 94.656471,37.437916 
	C97.490944,30.215693 100.794807,23.090248 99.996620,14.999373 
z"/>
<path fill="#ECB51D" opacity="1.000000" stroke="none" 
	d="
M89.991142,45.994148 
	C89.994423,47.063129 89.997711,48.132114 90.001938,49.602074 
	C87.734505,53.441956 88.128693,58.814919 82.372314,60.008652 
	C81.321404,58.613754 80.645027,57.202457 80.214844,55.148697 
	C81.952484,49.782066 84.141083,45.838421 89.991142,45.994148 
z"/>
<path fill="#D1B323" opacity="1.000000" stroke="none" 
	d="
M107.654358,23.157005 
	C107.994865,26.359068 107.998535,29.725227 108.006271,33.550617 
	C108.007294,34.451672 108.004242,34.893501 107.669388,35.818253 
	C106.870293,37.455349 106.363930,38.595455 105.942459,39.766125 
	C104.045273,45.035679 104.000404,51.145332 99.003723,54.604774 
	C99.002151,53.140408 99.001579,52.075573 99.001007,51.010742 
	C99.332870,49.587543 99.664734,48.164345 100.289345,46.277687 
	C101.051826,45.208115 101.521561,44.602001 101.991295,43.995888 
	C102.325760,41.939537 102.660217,39.883186 102.994766,37.414520 
	C103.988609,33.939247 104.993385,30.879797 105.971390,27.811817 
	C106.445953,26.323153 106.870384,24.818510 107.654358,23.157005 
z"/>
<path fill="#D1AE1A" opacity="1.000000" stroke="none" 
	d="
M98.721802,51.199528 
	C99.001579,52.075573 99.002151,53.140408 99.002411,55.019424 
	C98.993797,57.214088 98.985497,58.594570 98.977188,59.975052 
	C96.880577,61.932644 94.783958,63.890236 92.349808,65.930435 
	C90.498367,59.530029 95.513657,55.917843 98.721802,51.199528 
z"/>
<path fill="#DBBA21" opacity="1.000000" stroke="none" 
	d="
M101.704697,44.089252 
	C101.521561,44.602001 101.051826,45.208115 100.295486,45.907112 
	C100.478622,45.394203 100.948364,44.788410 101.704697,44.089252 
z"/>
<path fill="#7B9C30" opacity="1.000000" stroke="none" 
	d="
M113.996338,60.996105 
	C112.226341,63.280067 110.456352,65.564026 108.345596,67.593842 
	C107.995796,66.883514 107.986771,66.427322 107.977745,65.971138 
	C111.868782,54.424183 116.166847,42.992107 119.472664,31.279968 
	C121.037338,25.736509 119.569656,19.411022 123.682480,14.141533 
	C123.724983,19.070210 123.437531,24.138920 123.082848,29.611599 
	C123.015640,31.078506 123.015663,32.141445 122.756577,33.867134 
	C121.659317,39.348892 120.821159,44.167904 119.983009,48.986912 
	C119.983009,48.986912 119.967812,48.976067 119.626495,49.065132 
	C117.529556,52.768543 115.773926,56.382889 114.012543,60.246944 
	C114.006805,60.496658 113.996338,60.996105 113.996338,60.996105 
z"/>
<path fill="#32854A" opacity="1.000000" stroke="none" 
	d="
M126.690521,44.203133 
	C127.428513,43.988121 127.878624,43.991764 128.666199,43.994804 
	C129.446884,43.995907 129.890121,43.997612 130.665756,44.000725 
	C128.882477,49.250526 126.766785,54.498913 124.329025,59.875633 
	C124.002724,57.954662 123.998482,55.905354 123.986427,53.415646 
	C124.786629,50.124092 125.594643,47.272938 126.690521,44.203133 
z"/>
<path fill="#5D9431" opacity="1.000000" stroke="none" 
	d="
M120.337791,48.899719 
	C120.821159,44.167904 121.659317,39.348892 122.756332,34.266037 
	C124.307579,39.263065 125.523788,44.511986 120.337791,48.899719 
z"/>
<path fill="#689732" opacity="1.000000" stroke="none" 
	d="
M114.018295,59.997234 
	C115.773926,56.382889 117.529556,52.768543 119.617340,49.062832 
	C119.966309,49.729961 119.983131,50.488453 119.736679,51.799072 
	C118.984520,53.236740 118.495628,54.122280 118.006744,55.007824 
	C117.999016,55.752644 117.991287,56.497459 117.674530,57.711319 
	C116.249771,58.785984 115.134033,59.391609 114.018295,59.997234 
z"/>
<path fill="#5D9431" opacity="1.000000" stroke="none" 
	d="
M114.012550,60.246948 
	C115.134033,59.391609 116.249771,58.785984 117.669746,58.083717 
	C117.164978,59.533810 116.355965,61.080544 115.270538,62.810818 
	C114.743790,62.495392 114.493439,61.996426 114.119713,61.246780 
	C113.996338,60.996105 114.006805,60.496658 114.012550,60.246948 
z"/>
<path fill="#5D9431" opacity="1.000000" stroke="none" 
	d="
M118.312439,54.891926 
	C118.495628,54.122280 118.984520,53.236740 119.734116,52.178085 
	C119.535942,52.928661 119.077042,53.852345 118.312439,54.891926 
z"/>
<path fill="#829D2D" opacity="1.000000" stroke="none" 
	d="
M107.669746,66.081062 
	C107.986771,66.427322 107.995796,66.883514 108.012428,67.682053 
	C108.004288,71.824738 107.624496,75.384682 102.385620,75.989319 
	C102.320107,74.245567 102.632301,72.498138 102.962738,70.368530 
	C102.980980,69.986343 102.997566,69.498947 103.006187,69.255371 
	C104.463783,68.071526 105.912766,67.131256 107.669746,66.081062 
z"/>
<path fill="#7B9C30" opacity="1.000000" stroke="none" 
	d="
M125.730209,10.912201 
	C125.513771,11.588535 125.048912,12.203292 124.294632,12.909847 
	C124.497414,12.284638 124.989609,11.567631 125.730209,10.912201 
z"/>
<path fill="#F55E1C" opacity="1.000000" stroke="none" 
	d="
M48.558937,48.974831 
	C51.515018,51.224243 53.829311,53.839268 56.670586,55.607536 
	C59.361187,57.282040 60.300026,59.277344 59.999542,63.042648 
	C60.238506,66.640778 59.434315,70.530846 60.929493,71.888367 
	C64.188881,74.847664 64.215599,78.426651 64.996429,81.998169 
	C64.247261,81.998177 63.498089,81.998184 62.374321,81.997269 
	C60.926559,79.442451 60.121258,76.728226 58.712711,74.375092 
	C56.935192,71.405563 54.505383,68.833015 52.636906,65.910248 
	C45.686466,55.038021 37.483173,52.678406 25.955904,58.346436 
	C25.590458,58.526123 25.003269,58.254837 24.227802,58.074348 
	C27.493349,50.824036 33.459343,48.301971 41.620178,49.232307 
	C42.767277,49.318546 43.394249,49.156651 44.021221,48.994759 
	C45.396603,48.986683 46.771980,48.978611 48.558937,48.974831 
z"/>
<path fill="#F5691A" opacity="1.000000" stroke="none" 
	d="
M43.681480,48.989449 
	C43.394249,49.156651 42.767277,49.318546 42.061565,49.241112 
	C42.435795,48.995903 42.888767,48.990017 43.681480,48.989449 
z"/>
<path fill="#1C724F" opacity="1.000000" stroke="none" 
	d="
M127.308960,103.863464 
	C126.251472,104.001633 125.500198,103.999298 124.352219,103.631500 
	C123.636200,101.844093 123.316879,100.422142 123.146286,98.653442 
	C123.863441,95.871811 124.431885,93.436943 125.000328,91.002075 
	C126.448586,91.239235 127.896851,91.476395 129.685242,91.859543 
	C130.685486,94.383369 131.345581,96.761215 132.007599,99.565475 
	C130.544739,101.235588 129.079956,102.479279 127.308960,103.863464 
z"/>
<path fill="#C6AF28" opacity="1.000000" stroke="none" 
	d="
M98.986694,59.985321 
	C98.985497,58.594570 98.993797,57.214088 99.003418,55.418961 
	C104.000404,51.145332 104.045273,45.035679 105.942459,39.766125 
	C106.363930,38.595455 106.870293,37.455349 107.667366,36.149719 
	C107.886269,39.131020 107.775383,42.263779 107.829514,45.697037 
	C107.991608,46.440250 107.988693,46.882961 107.664688,47.770027 
	C105.897728,50.811016 104.451859,53.407650 103.001968,56.402603 
	C102.992950,57.862820 102.987961,58.924709 102.982971,59.986603 
	C102.982971,59.986603 102.998466,59.996788 102.592590,59.990498 
	C101.128716,59.994507 100.070717,60.004807 99.012718,60.015106 
	C99.012718,60.015106 98.996201,59.995594 98.986694,59.985321 
z"/>
<path fill="#B9AE2D" opacity="1.000000" stroke="none" 
	d="
M103.005997,56.004284 
	C104.451859,53.407650 105.897728,50.811016 107.661942,48.102028 
	C107.700401,49.421413 107.420517,50.853149 107.076080,52.644829 
	C106.756294,53.808472 106.501053,54.612167 105.741837,55.707039 
	C104.493912,56.000244 103.749954,56.002266 103.005997,56.004284 
z"/>
<path fill="#175837" opacity="1.000000" stroke="none" 
	d="
M124.000565,124.000053 
	C125.446045,122.383003 126.891518,120.765953 128.669403,119.074600 
	C135.406570,122.063454 136.510437,124.030014 135.946136,131.838882 
	C135.792984,133.958344 135.335037,136.055786 135.003967,138.590912 
	C134.104919,140.163513 133.218857,141.308563 132.173615,142.721985 
	C131.512177,143.245255 131.009888,143.500153 130.051987,143.586304 
	C130.473022,138.385941 128.841507,134.282974 125.072723,130.629898 
	C124.764832,128.174026 124.382698,126.087044 124.000565,124.000053 
z"/>
<path fill="#F7C618" opacity="1.000000" stroke="none" 
	d="
M70.892181,41.997749 
	C70.892181,41.997749 70.878082,41.520794 71.119987,41.083084 
	C71.528816,40.318966 71.695732,39.992558 71.862656,39.666153 
	C73.214226,37.021580 74.565796,34.377007 76.028946,31.397430 
	C78.453255,28.230864 80.850868,25.463339 83.051102,22.546896 
	C84.724342,20.328981 86.146729,17.921818 87.834160,15.298763 
	C90.708786,14.665585 93.429985,14.332502 96.566811,14.384038 
	C94.986359,19.180496 92.990280,23.592335 90.624893,28.011967 
	C88.004509,29.761957 85.805542,31.577099 83.490967,33.230400 
	C79.327942,36.204044 75.095581,39.080620 70.892181,41.997749 
z"/>
<path fill="#B2A82B" opacity="1.000000" stroke="none" 
	d="
M98.982712,60.389580 
	C100.070717,60.004807 101.128716,59.994507 102.583023,59.982845 
	C100.870033,63.905289 98.760735,67.829094 96.341042,71.886543 
	C97.004669,68.268143 97.978683,64.516106 98.982712,60.389580 
z"/>
<path fill="#B2A82B" opacity="1.000000" stroke="none" 
	d="
M103.001968,56.402603 
	C103.749954,56.002266 104.493912,56.000244 105.609436,55.996155 
	C105.169098,57.214775 104.357178,58.435471 103.264114,59.821384 
	C102.987961,58.924709 102.992950,57.862820 103.001968,56.402603 
z"/>
<path fill="#217E4A" opacity="1.000000" stroke="none" 
	d="
M124.846733,90.669998 
	C124.431885,93.436943 123.863441,95.871811 122.769638,98.729416 
	C119.498428,99.767052 116.752579,100.381966 114.006729,100.996880 
	C114.321846,99.575066 114.636963,98.153244 114.972214,96.366821 
	C115.329468,93.619553 115.666573,91.236893 116.006165,88.429443 
	C118.903481,88.782417 121.798309,89.560165 124.846733,90.669998 
z"/>
<path fill="#F26316" opacity="1.000000" stroke="none" 
	d="
M65.068466,82.351898 
	C64.215599,78.426651 64.188881,74.847664 60.929493,71.888367 
	C59.434315,70.530846 60.238506,66.640778 60.000290,63.448898 
	C61.899803,65.235291 63.912731,67.386993 65.665619,69.732986 
	C67.356293,71.995712 68.778557,74.458977 70.656647,76.917763 
	C71.201042,77.527306 71.407509,78.053238 71.803467,78.792389 
	C72.272278,84.397469 72.551620,89.789307 72.915237,95.589272 
	C71.837135,94.962906 70.674767,93.928413 69.251205,92.948792 
	C67.706856,89.570984 66.423683,86.138298 65.068466,82.351898 
z"/>
<path fill="#155330" opacity="1.000000" stroke="none" 
	d="
M124.998474,130.998779 
	C128.841507,134.282974 130.473022,138.385941 129.799530,143.710480 
	C128.219894,145.952789 126.437080,147.902145 124.321640,149.926056 
	C123.549377,150.000519 123.109741,150.000427 121.961021,150.000336 
	C119.839439,150.330963 118.426949,150.661575 117.014458,150.992203 
	C112.319672,150.992661 107.624886,150.993134 102.429276,150.646866 
	C100.830498,148.945496 99.732544,147.590866 97.767570,145.166519 
	C100.138161,143.472198 102.355766,141.532547 104.885269,140.173355 
	C107.743065,138.637741 110.920891,137.711044 113.887245,136.360733 
	C117.629204,134.657379 121.298073,132.793442 124.998474,130.998779 
z"/>
<path fill="#175B30" opacity="1.000000" stroke="none" 
	d="
M125.072723,130.629898 
	C121.298073,132.793442 117.629204,134.657379 113.887245,136.360733 
	C110.920891,137.711044 107.743065,138.637741 104.885269,140.173355 
	C102.355766,141.532547 100.138161,143.472198 97.767570,145.166519 
	C99.732544,147.590866 100.830498,148.945496 101.962921,150.644867 
	C98.969940,150.990341 95.942482,150.991058 92.461868,150.987213 
	C91.056564,149.539124 90.104408,148.095581 89.075653,146.329468 
	C94.046974,134.438965 106.613747,133.581177 115.730980,127.213646 
	C118.498260,126.160851 120.997704,125.322617 123.748856,124.242218 
	C124.382698,126.087044 124.764832,128.174026 125.072723,130.629898 
z"/>
<path fill="#1C5637" opacity="1.000000" stroke="none" 
	d="
M117.391800,150.991913 
	C118.426949,150.661575 119.839439,150.330963 121.631180,150.000183 
	C120.596664,150.330536 119.182899,150.661087 117.391800,150.991913 
z"/>
<path fill="#F1BD17" opacity="1.000000" stroke="none" 
	d="
M90.994202,28.004173 
	C92.990280,23.592335 94.986359,19.180496 96.987099,14.384939 
	C97.823692,14.200258 98.655617,14.399296 99.742081,14.798853 
	C100.794807,23.090248 97.490944,30.215693 94.656471,37.437916 
	C94.191284,38.623222 93.324554,39.650932 91.956924,40.905701 
	C90.138062,41.676727 89.051552,42.660213 87.860657,42.809166 
	C86.622742,42.963997 85.283928,42.312157 84.275459,41.831802 
	C88.177185,37.795288 91.638916,33.867565 90.994202,28.004173 
z"/>
<path fill="#EAB322" opacity="1.000000" stroke="none" 
	d="
M83.989235,42.013069 
	C85.283928,42.312157 86.622742,42.963997 87.860657,42.809166 
	C89.051552,42.660213 90.138062,41.676727 91.634827,41.034233 
	C91.400444,42.455379 90.801689,43.902218 90.097038,45.671600 
	C84.141083,45.838421 81.952484,49.782066 80.210175,54.768227 
	C79.004250,55.011475 78.049187,54.992729 76.738419,54.956329 
	C75.600266,53.589314 74.817818,52.239952 73.752182,50.706551 
	C73.202660,50.070839 72.936325,49.619171 72.527847,48.946121 
	C71.920158,47.430916 71.454620,46.137089 71.345062,44.454369 
	C73.376732,43.553303 75.021614,42.839478 76.735542,42.577660 
	C79.126404,42.212440 81.568855,42.185036 83.989235,42.013069 
z"/>
<path fill="#F8C01D" opacity="1.000000" stroke="none" 
	d="
M84.275459,41.831802 
	C81.568855,42.185036 79.126404,42.212440 76.735542,42.577660 
	C75.021614,42.839478 73.376732,43.553303 71.300171,44.111877 
	C70.865074,43.676754 70.830856,43.195232 70.844406,42.355728 
	C75.095581,39.080620 79.327942,36.204044 83.490967,33.230400 
	C85.805542,31.577099 88.004509,29.761957 90.624893,28.011967 
	C91.638916,33.867565 88.177185,37.795288 84.275459,41.831802 
z"/>
<path fill="#F8C01D" opacity="1.000000" stroke="none" 
	d="
M71.665573,39.862820 
	C71.695732,39.992558 71.528816,40.318966 71.179489,40.852036 
	C71.154213,40.725632 71.311348,40.392559 71.665573,39.862820 
z"/>
<path fill="#1F7743" opacity="1.000000" stroke="none" 
	d="
M113.873749,101.286118 
	C116.752579,100.381966 119.498428,99.767052 122.620918,99.076172 
	C123.316879,100.422142 123.636200,101.844093 123.976631,103.630722 
	C121.261299,104.659134 118.524857,105.322845 115.395920,105.994011 
	C114.434631,105.496399 113.865837,104.991341 113.145584,104.240662 
	C113.243004,103.188477 113.491882,102.381912 113.873749,101.286118 
z"/>
<path fill="#F5731C" opacity="1.000000" stroke="none" 
	d="
M60.507473,51.509174 
	C60.486271,51.517265 60.528675,51.501083 60.507473,51.509174 
z"/>
</svg>